<svg width="301" height="302" viewBox="0 0 301 302" fill="none" xmlns="http://www.w3.org/2000/svg">
<g filter="url(#filter0_d_13_278)">
<path d="M26.6367 223.805L34.1172 200.562H39.5273L29.332 229H25.6797L26.6367 223.805ZM19.7227 200.562L27.1445 223.805L28.1602 229H24.4883L14.332 200.562H19.7227ZM53.2578 224.762V214.684C53.2578 213.928 53.1211 213.277 52.8477 212.73C52.5742 212.184 52.1576 211.76 51.5977 211.461C51.0508 211.161 50.3607 211.012 49.5273 211.012C48.7591 211.012 48.0951 211.142 47.5352 211.402C46.9753 211.663 46.5391 212.014 46.2266 212.457C45.9141 212.9 45.7578 213.401 45.7578 213.961H41.0703C41.0703 213.128 41.2721 212.32 41.6758 211.539C42.0794 210.758 42.6654 210.061 43.4336 209.449C44.2018 208.837 45.1198 208.355 46.1875 208.004C47.2552 207.652 48.4531 207.477 49.7812 207.477C51.3698 207.477 52.776 207.743 54 208.277C55.237 208.811 56.207 209.618 56.9102 210.699C57.6263 211.767 57.9844 213.108 57.9844 214.723V224.117C57.9844 225.081 58.0495 225.947 58.1797 226.715C58.3229 227.47 58.5247 228.128 58.7852 228.688V229H53.9609C53.7396 228.492 53.5638 227.848 53.4336 227.066C53.3164 226.272 53.2578 225.504 53.2578 224.762ZM53.9414 216.148L53.9805 219.059H50.6016C49.7292 219.059 48.9609 219.143 48.2969 219.312C47.6328 219.469 47.0794 219.703 46.6367 220.016C46.194 220.328 45.862 220.706 45.6406 221.148C45.4193 221.591 45.3086 222.092 45.3086 222.652C45.3086 223.212 45.4388 223.727 45.6992 224.195C45.9596 224.651 46.3372 225.009 46.832 225.27C47.3398 225.53 47.9518 225.66 48.668 225.66C49.6315 225.66 50.4714 225.465 51.1875 225.074C51.9167 224.671 52.4896 224.182 52.9062 223.609C53.3229 223.023 53.5443 222.47 53.5703 221.949L55.0938 224.039C54.9375 224.573 54.6706 225.146 54.293 225.758C53.9154 226.37 53.4206 226.956 52.8086 227.516C52.2096 228.062 51.487 228.512 50.6406 228.863C49.8073 229.215 48.8438 229.391 47.75 229.391C46.3698 229.391 45.1393 229.117 44.0586 228.57C42.9779 228.01 42.1315 227.262 41.5195 226.324C40.9076 225.374 40.6016 224.299 40.6016 223.102C40.6016 221.982 40.8099 220.992 41.2266 220.133C41.6562 219.26 42.2812 218.531 43.1016 217.945C43.9349 217.359 44.9505 216.917 46.1484 216.617C47.3464 216.305 48.7135 216.148 50.25 216.148H53.9414ZM47.5938 204.879L51.4023 199H56.7148L51.4023 204.879H47.5938ZM67.6328 211.891V229H62.9258V207.867H67.418L67.6328 211.891ZM74.0977 207.73L74.0586 212.105C73.7721 212.053 73.4596 212.014 73.1211 211.988C72.7956 211.962 72.4701 211.949 72.1445 211.949C71.3372 211.949 70.6276 212.066 70.0156 212.301C69.4036 212.522 68.8893 212.848 68.4727 213.277C68.069 213.694 67.7565 214.202 67.5352 214.801C67.3138 215.4 67.1836 216.07 67.1445 216.812L66.0703 216.891C66.0703 215.562 66.2005 214.332 66.4609 213.199C66.7214 212.066 67.112 211.07 67.6328 210.211C68.1667 209.352 68.8307 208.681 69.625 208.199C70.4323 207.717 71.3633 207.477 72.418 207.477C72.7044 207.477 73.0104 207.503 73.3359 207.555C73.6745 207.607 73.9284 207.665 74.0977 207.73ZM82.0859 207.867V229H77.3594V207.867H82.0859ZM77.0469 202.32C77.0469 201.604 77.2812 201.012 77.75 200.543C78.2318 200.061 78.8958 199.82 79.7422 199.82C80.5755 199.82 81.2331 200.061 81.7148 200.543C82.1966 201.012 82.4375 201.604 82.4375 202.32C82.4375 203.023 82.1966 203.609 81.7148 204.078C81.2331 204.547 80.5755 204.781 79.7422 204.781C78.8958 204.781 78.2318 204.547 77.75 204.078C77.2812 203.609 77.0469 203.023 77.0469 202.32ZM99.1562 224.762V214.684C99.1562 213.928 99.0195 213.277 98.7461 212.73C98.4727 212.184 98.056 211.76 97.4961 211.461C96.9492 211.161 96.2591 211.012 95.4258 211.012C94.6576 211.012 93.9935 211.142 93.4336 211.402C92.8737 211.663 92.4375 212.014 92.125 212.457C91.8125 212.9 91.6562 213.401 91.6562 213.961H86.9688C86.9688 213.128 87.1706 212.32 87.5742 211.539C87.9779 210.758 88.5638 210.061 89.332 209.449C90.1003 208.837 91.0182 208.355 92.0859 208.004C93.1536 207.652 94.3516 207.477 95.6797 207.477C97.2682 207.477 98.6745 207.743 99.8984 208.277C101.135 208.811 102.105 209.618 102.809 210.699C103.525 211.767 103.883 213.108 103.883 214.723V224.117C103.883 225.081 103.948 225.947 104.078 226.715C104.221 227.47 104.423 228.128 104.684 228.688V229H99.8594C99.638 228.492 99.4622 227.848 99.332 227.066C99.2148 226.272 99.1562 225.504 99.1562 224.762ZM99.8398 216.148L99.8789 219.059H96.5C95.6276 219.059 94.8594 219.143 94.1953 219.312C93.5312 219.469 92.9779 219.703 92.5352 220.016C92.0924 220.328 91.7604 220.706 91.5391 221.148C91.3177 221.591 91.207 222.092 91.207 222.652C91.207 223.212 91.3372 223.727 91.5977 224.195C91.8581 224.651 92.2357 225.009 92.7305 225.27C93.2383 225.53 93.8503 225.66 94.5664 225.66C95.5299 225.66 96.3698 225.465 97.0859 225.074C97.8151 224.671 98.388 224.182 98.8047 223.609C99.2214 223.023 99.4427 222.47 99.4688 221.949L100.992 224.039C100.836 224.573 100.569 225.146 100.191 225.758C99.8138 226.37 99.319 226.956 98.707 227.516C98.1081 228.062 97.3854 228.512 96.5391 228.863C95.7057 229.215 94.7422 229.391 93.6484 229.391C92.2682 229.391 91.0378 229.117 89.957 228.57C88.8763 228.01 88.0299 227.262 87.418 226.324C86.806 225.374 86.5 224.299 86.5 223.102C86.5 221.982 86.7083 220.992 87.125 220.133C87.5547 219.26 88.1797 218.531 89 217.945C89.8333 217.359 90.849 216.917 92.0469 216.617C93.2448 216.305 94.612 216.148 96.1484 216.148H99.8398ZM120.66 223.277C120.66 222.809 120.543 222.385 120.309 222.008C120.074 221.617 119.625 221.266 118.961 220.953C118.31 220.641 117.346 220.354 116.07 220.094C114.951 219.846 113.922 219.553 112.984 219.215C112.06 218.863 111.266 218.44 110.602 217.945C109.938 217.451 109.423 216.865 109.059 216.188C108.694 215.51 108.512 214.729 108.512 213.844C108.512 212.984 108.701 212.171 109.078 211.402C109.456 210.634 109.996 209.957 110.699 209.371C111.402 208.785 112.255 208.323 113.258 207.984C114.273 207.646 115.406 207.477 116.656 207.477C118.427 207.477 119.944 207.776 121.207 208.375C122.483 208.961 123.46 209.762 124.137 210.777C124.814 211.78 125.152 212.913 125.152 214.176H120.445C120.445 213.616 120.302 213.095 120.016 212.613C119.742 212.118 119.326 211.721 118.766 211.422C118.206 211.109 117.503 210.953 116.656 210.953C115.849 210.953 115.178 211.083 114.645 211.344C114.124 211.591 113.733 211.917 113.473 212.32C113.225 212.724 113.102 213.167 113.102 213.648C113.102 214 113.167 214.319 113.297 214.605C113.44 214.879 113.674 215.133 114 215.367C114.326 215.589 114.768 215.797 115.328 215.992C115.901 216.188 116.617 216.376 117.477 216.559C119.091 216.897 120.478 217.333 121.637 217.867C122.809 218.388 123.707 219.065 124.332 219.898C124.957 220.719 125.27 221.76 125.27 223.023C125.27 223.961 125.068 224.82 124.664 225.602C124.273 226.37 123.701 227.04 122.945 227.613C122.19 228.173 121.285 228.609 120.23 228.922C119.189 229.234 118.017 229.391 116.715 229.391C114.801 229.391 113.18 229.052 111.852 228.375C110.523 227.685 109.514 226.806 108.824 225.738C108.147 224.658 107.809 223.538 107.809 222.379H112.359C112.411 223.251 112.652 223.948 113.082 224.469C113.525 224.977 114.072 225.348 114.723 225.582C115.387 225.803 116.07 225.914 116.773 225.914C117.62 225.914 118.329 225.803 118.902 225.582C119.475 225.348 119.911 225.035 120.211 224.645C120.51 224.241 120.66 223.785 120.66 223.277ZM144.723 200.562V229H139.82V200.562H144.723ZM156.324 213.004V216.891H143.473V213.004H156.324ZM157.945 200.562V204.469H143.473V200.562H157.945ZM160.055 218.668V218.219C160.055 216.695 160.276 215.283 160.719 213.98C161.161 212.665 161.799 211.526 162.633 210.562C163.479 209.586 164.508 208.831 165.719 208.297C166.943 207.75 168.323 207.477 169.859 207.477C171.409 207.477 172.789 207.75 174 208.297C175.224 208.831 176.259 209.586 177.105 210.562C177.952 211.526 178.596 212.665 179.039 213.98C179.482 215.283 179.703 216.695 179.703 218.219V218.668C179.703 220.191 179.482 221.604 179.039 222.906C178.596 224.208 177.952 225.348 177.105 226.324C176.259 227.288 175.23 228.043 174.02 228.59C172.809 229.124 171.435 229.391 169.898 229.391C168.349 229.391 166.962 229.124 165.738 228.59C164.527 228.043 163.499 227.288 162.652 226.324C161.806 225.348 161.161 224.208 160.719 222.906C160.276 221.604 160.055 220.191 160.055 218.668ZM164.762 218.219V218.668C164.762 219.618 164.859 220.517 165.055 221.363C165.25 222.21 165.556 222.952 165.973 223.59C166.389 224.228 166.923 224.729 167.574 225.094C168.225 225.458 169 225.641 169.898 225.641C170.771 225.641 171.526 225.458 172.164 225.094C172.815 224.729 173.349 224.228 173.766 223.59C174.182 222.952 174.488 222.21 174.684 221.363C174.892 220.517 174.996 219.618 174.996 218.668V218.219C174.996 217.281 174.892 216.396 174.684 215.562C174.488 214.716 174.176 213.967 173.746 213.316C173.329 212.665 172.796 212.158 172.145 211.793C171.507 211.415 170.745 211.227 169.859 211.227C168.974 211.227 168.206 211.415 167.555 211.793C166.917 212.158 166.389 212.665 165.973 213.316C165.556 213.967 165.25 214.716 165.055 215.562C164.859 216.396 164.762 217.281 164.762 218.219ZM188.375 211.891V229H183.668V207.867H188.16L188.375 211.891ZM194.84 207.73L194.801 212.105C194.514 212.053 194.202 212.014 193.863 211.988C193.538 211.962 193.212 211.949 192.887 211.949C192.079 211.949 191.37 212.066 190.758 212.301C190.146 212.522 189.632 212.848 189.215 213.277C188.811 213.694 188.499 214.202 188.277 214.801C188.056 215.4 187.926 216.07 187.887 216.812L186.812 216.891C186.812 215.562 186.943 214.332 187.203 213.199C187.464 212.066 187.854 211.07 188.375 210.211C188.909 209.352 189.573 208.681 190.367 208.199C191.174 207.717 192.105 207.477 193.16 207.477C193.447 207.477 193.753 207.503 194.078 207.555C194.417 207.607 194.671 207.665 194.84 207.73ZM202.496 212.164V229H197.789V207.867H202.223L202.496 212.164ZM201.734 217.652L200.133 217.633C200.133 216.174 200.315 214.827 200.68 213.59C201.044 212.353 201.578 211.279 202.281 210.367C202.984 209.443 203.857 208.733 204.898 208.238C205.953 207.73 207.171 207.477 208.551 207.477C209.514 207.477 210.393 207.62 211.188 207.906C211.995 208.18 212.691 208.616 213.277 209.215C213.876 209.814 214.332 210.582 214.645 211.52C214.97 212.457 215.133 213.59 215.133 214.918V229H210.426V215.328C210.426 214.299 210.27 213.492 209.957 212.906C209.658 212.32 209.221 211.904 208.648 211.656C208.089 211.396 207.418 211.266 206.637 211.266C205.751 211.266 204.996 211.435 204.371 211.773C203.759 212.112 203.258 212.574 202.867 213.16C202.477 213.746 202.19 214.423 202.008 215.191C201.826 215.96 201.734 216.78 201.734 217.652ZM214.84 216.402L212.633 216.891C212.633 215.615 212.809 214.41 213.16 213.277C213.525 212.132 214.052 211.129 214.742 210.27C215.445 209.397 216.311 208.714 217.34 208.219C218.368 207.724 219.547 207.477 220.875 207.477C221.956 207.477 222.919 207.626 223.766 207.926C224.625 208.212 225.354 208.668 225.953 209.293C226.552 209.918 227.008 210.732 227.32 211.734C227.633 212.724 227.789 213.922 227.789 215.328V229H223.062V215.309C223.062 214.241 222.906 213.414 222.594 212.828C222.294 212.242 221.865 211.839 221.305 211.617C220.745 211.383 220.074 211.266 219.293 211.266C218.564 211.266 217.919 211.402 217.359 211.676C216.812 211.936 216.35 212.307 215.973 212.789C215.595 213.258 215.309 213.798 215.113 214.41C214.931 215.022 214.84 215.686 214.84 216.402ZM244.547 224.762V214.684C244.547 213.928 244.41 213.277 244.137 212.73C243.863 212.184 243.447 211.76 242.887 211.461C242.34 211.161 241.65 211.012 240.816 211.012C240.048 211.012 239.384 211.142 238.824 211.402C238.264 211.663 237.828 212.014 237.516 212.457C237.203 212.9 237.047 213.401 237.047 213.961H232.359C232.359 213.128 232.561 212.32 232.965 211.539C233.368 210.758 233.954 210.061 234.723 209.449C235.491 208.837 236.409 208.355 237.477 208.004C238.544 207.652 239.742 207.477 241.07 207.477C242.659 207.477 244.065 207.743 245.289 208.277C246.526 208.811 247.496 209.618 248.199 210.699C248.915 211.767 249.273 213.108 249.273 214.723V224.117C249.273 225.081 249.339 225.947 249.469 226.715C249.612 227.47 249.814 228.128 250.074 228.688V229H245.25C245.029 228.492 244.853 227.848 244.723 227.066C244.605 226.272 244.547 225.504 244.547 224.762ZM245.23 216.148L245.27 219.059H241.891C241.018 219.059 240.25 219.143 239.586 219.312C238.922 219.469 238.368 219.703 237.926 220.016C237.483 220.328 237.151 220.706 236.93 221.148C236.708 221.591 236.598 222.092 236.598 222.652C236.598 223.212 236.728 223.727 236.988 224.195C237.249 224.651 237.626 225.009 238.121 225.27C238.629 225.53 239.241 225.66 239.957 225.66C240.921 225.66 241.76 225.465 242.477 225.074C243.206 224.671 243.779 224.182 244.195 223.609C244.612 223.023 244.833 222.47 244.859 221.949L246.383 224.039C246.227 224.573 245.96 225.146 245.582 225.758C245.204 226.37 244.71 226.956 244.098 227.516C243.499 228.062 242.776 228.512 241.93 228.863C241.096 229.215 240.133 229.391 239.039 229.391C237.659 229.391 236.428 229.117 235.348 228.57C234.267 228.01 233.421 227.262 232.809 226.324C232.197 225.374 231.891 224.299 231.891 223.102C231.891 221.982 232.099 220.992 232.516 220.133C232.945 219.26 233.57 218.531 234.391 217.945C235.224 217.359 236.24 216.917 237.438 216.617C238.635 216.305 240.003 216.148 241.539 216.148H245.23ZM266.051 223.277C266.051 222.809 265.934 222.385 265.699 222.008C265.465 221.617 265.016 221.266 264.352 220.953C263.701 220.641 262.737 220.354 261.461 220.094C260.341 219.846 259.312 219.553 258.375 219.215C257.451 218.863 256.656 218.44 255.992 217.945C255.328 217.451 254.814 216.865 254.449 216.188C254.085 215.51 253.902 214.729 253.902 213.844C253.902 212.984 254.091 212.171 254.469 211.402C254.846 210.634 255.387 209.957 256.09 209.371C256.793 208.785 257.646 208.323 258.648 207.984C259.664 207.646 260.797 207.477 262.047 207.477C263.818 207.477 265.335 207.776 266.598 208.375C267.874 208.961 268.85 209.762 269.527 210.777C270.204 211.78 270.543 212.913 270.543 214.176H265.836C265.836 213.616 265.693 213.095 265.406 212.613C265.133 212.118 264.716 211.721 264.156 211.422C263.596 211.109 262.893 210.953 262.047 210.953C261.24 210.953 260.569 211.083 260.035 211.344C259.514 211.591 259.124 211.917 258.863 212.32C258.616 212.724 258.492 213.167 258.492 213.648C258.492 214 258.557 214.319 258.688 214.605C258.831 214.879 259.065 215.133 259.391 215.367C259.716 215.589 260.159 215.797 260.719 215.992C261.292 216.188 262.008 216.376 262.867 216.559C264.482 216.897 265.868 217.333 267.027 217.867C268.199 218.388 269.098 219.065 269.723 219.898C270.348 220.719 270.66 221.76 270.66 223.023C270.66 223.961 270.458 224.82 270.055 225.602C269.664 226.37 269.091 227.04 268.336 227.613C267.581 228.173 266.676 228.609 265.621 228.922C264.579 229.234 263.408 229.391 262.105 229.391C260.191 229.391 258.57 229.052 257.242 228.375C255.914 227.685 254.905 226.806 254.215 225.738C253.538 224.658 253.199 223.538 253.199 222.379H257.75C257.802 223.251 258.043 223.948 258.473 224.469C258.915 224.977 259.462 225.348 260.113 225.582C260.777 225.803 261.461 225.914 262.164 225.914C263.01 225.914 263.72 225.803 264.293 225.582C264.866 225.348 265.302 225.035 265.602 224.645C265.901 224.241 266.051 223.785 266.051 223.277Z" fill="white"/>
<path d="M13.1523 292H7.07812L7.11719 288.113H13.1523C14.9102 288.113 16.3815 287.729 17.5664 286.961C18.7643 286.193 19.6628 285.092 20.2617 283.66C20.8737 282.228 21.1797 280.522 21.1797 278.543V277C21.1797 275.464 21.0039 274.103 20.6523 272.918C20.3138 271.733 19.806 270.737 19.1289 269.93C18.4648 269.122 17.6445 268.51 16.668 268.094C15.7044 267.677 14.5911 267.469 13.3281 267.469H6.96094V263.562H13.3281C15.2161 263.562 16.9414 263.882 18.5039 264.52C20.0664 265.145 21.4141 266.049 22.5469 267.234C23.6927 268.419 24.5716 269.839 25.1836 271.492C25.7956 273.146 26.1016 274.995 26.1016 277.039V278.543C26.1016 280.587 25.7956 282.436 25.1836 284.09C24.5716 285.743 23.6927 287.163 22.5469 288.348C21.401 289.52 20.0339 290.424 18.4453 291.062C16.8698 291.688 15.1055 292 13.1523 292ZM9.79297 263.562V292H4.89062V263.562H9.79297ZM39.8711 292.391C38.3086 292.391 36.8958 292.137 35.6328 291.629C34.3828 291.108 33.3151 290.385 32.4297 289.461C31.5573 288.536 30.8867 287.449 30.418 286.199C29.9492 284.949 29.7148 283.602 29.7148 282.156V281.375C29.7148 279.721 29.9557 278.224 30.4375 276.883C30.9193 275.542 31.5898 274.396 32.4492 273.445C33.3086 272.482 34.3242 271.746 35.4961 271.238C36.668 270.73 37.9375 270.477 39.3047 270.477C40.8151 270.477 42.1367 270.73 43.2695 271.238C44.4023 271.746 45.3398 272.462 46.082 273.387C46.8372 274.298 47.3971 275.385 47.7617 276.648C48.1393 277.911 48.3281 279.305 48.3281 280.828V282.84H32V279.461H43.6797V279.09C43.6536 278.243 43.4844 277.449 43.1719 276.707C42.8724 275.965 42.4102 275.366 41.7852 274.91C41.1602 274.454 40.3268 274.227 39.2852 274.227C38.5039 274.227 37.8073 274.396 37.1953 274.734C36.5964 275.06 36.0951 275.535 35.6914 276.16C35.2878 276.785 34.9753 277.54 34.7539 278.426C34.5456 279.298 34.4414 280.281 34.4414 281.375V282.156C34.4414 283.081 34.5651 283.94 34.8125 284.734C35.0729 285.516 35.4505 286.199 35.9453 286.785C36.4401 287.371 37.0391 287.833 37.7422 288.172C38.4453 288.497 39.2461 288.66 40.1445 288.66C41.2773 288.66 42.2865 288.432 43.1719 287.977C44.0573 287.521 44.8255 286.876 45.4766 286.043L47.957 288.445C47.5013 289.109 46.9089 289.747 46.1797 290.359C45.4505 290.958 44.5586 291.447 43.5039 291.824C42.4622 292.202 41.2513 292.391 39.8711 292.391ZM73.2305 281.395H65.8281V277.508H73.2305C74.5195 277.508 75.5612 277.299 76.3555 276.883C77.1497 276.466 77.7292 275.893 78.0938 275.164C78.4714 274.422 78.6602 273.576 78.6602 272.625C78.6602 271.727 78.4714 270.887 78.0938 270.105C77.7292 269.311 77.1497 268.673 76.3555 268.191C75.5612 267.71 74.5195 267.469 73.2305 267.469H67.332V292H62.4297V263.562H73.2305C75.431 263.562 77.2995 263.953 78.8359 264.734C80.3854 265.503 81.5638 266.57 82.3711 267.938C83.1784 269.292 83.582 270.841 83.582 272.586C83.582 274.422 83.1784 275.997 82.3711 277.312C81.5638 278.628 80.3854 279.637 78.8359 280.34C77.2995 281.043 75.431 281.395 73.2305 281.395ZM96.082 267.352L87.5859 292H82.4492L93.1523 263.562H96.4336L96.082 267.352ZM103.191 292L94.6758 267.352L94.3047 263.562H97.6055L108.348 292H103.191ZM102.781 281.453V285.34H87.3125V281.453H102.781ZM133.055 277.469V288.328C132.651 288.862 132.02 289.448 131.16 290.086C130.314 290.711 129.188 291.251 127.781 291.707C126.375 292.163 124.624 292.391 122.527 292.391C120.743 292.391 119.109 292.091 117.625 291.492C116.141 290.88 114.858 289.988 113.777 288.816C112.71 287.645 111.883 286.219 111.297 284.539C110.711 282.846 110.418 280.919 110.418 278.758V276.785C110.418 274.637 110.685 272.723 111.219 271.043C111.766 269.35 112.547 267.918 113.562 266.746C114.578 265.574 115.802 264.689 117.234 264.09C118.68 263.478 120.314 263.172 122.137 263.172C124.467 263.172 126.395 263.562 127.918 264.344C129.454 265.112 130.639 266.18 131.473 267.547C132.306 268.914 132.833 270.477 133.055 272.234H128.25C128.094 271.245 127.788 270.359 127.332 269.578C126.889 268.797 126.251 268.185 125.418 267.742C124.598 267.286 123.53 267.059 122.215 267.059C121.082 267.059 120.086 267.273 119.227 267.703C118.367 268.133 117.651 268.764 117.078 269.598C116.518 270.431 116.095 271.447 115.809 272.645C115.522 273.842 115.379 275.21 115.379 276.746V278.758C115.379 280.32 115.542 281.707 115.867 282.918C116.206 284.129 116.688 285.151 117.312 285.984C117.951 286.818 118.725 287.449 119.637 287.879C120.548 288.296 121.577 288.504 122.723 288.504C123.842 288.504 124.76 288.413 125.477 288.23C126.193 288.035 126.759 287.807 127.176 287.547C127.605 287.273 127.938 287.013 128.172 286.766V281.121H122.254V277.469H133.055ZM149.559 267.352L141.062 292H135.926L146.629 263.562H149.91L149.559 267.352ZM156.668 292L148.152 267.352L147.781 263.562H151.082L161.824 292H156.668ZM156.258 281.453V285.34H140.789V281.453H156.258ZM167 263.562H171.375L179.598 285.496L187.801 263.562H192.176L181.316 292H177.84L167 263.562ZM165.008 263.562H169.168L169.891 282.547V292H165.008V263.562ZM190.008 263.562H194.188V292H189.285V282.547L190.008 263.562ZM218.621 288.113V292H203.523V288.113H218.621ZM204.91 263.562V292H200.008V263.562H204.91ZM216.648 275.438V279.266H203.523V275.438H216.648ZM218.523 263.562V267.469H203.523V263.562H218.523ZM245.184 263.562V292H240.281L227.527 271.629V292H222.625V263.562H227.527L240.32 283.973V263.562H245.184ZM262.137 263.562V292H257.273V263.562H262.137ZM271.062 263.562V267.469H248.426V263.562H271.062ZM296.941 277V278.562C296.941 280.711 296.661 282.638 296.102 284.344C295.542 286.049 294.741 287.501 293.699 288.699C292.671 289.897 291.434 290.815 289.988 291.453C288.543 292.078 286.941 292.391 285.184 292.391C283.439 292.391 281.844 292.078 280.398 291.453C278.966 290.815 277.723 289.897 276.668 288.699C275.613 287.501 274.793 286.049 274.207 284.344C273.634 282.638 273.348 280.711 273.348 278.562V277C273.348 274.852 273.634 272.931 274.207 271.238C274.78 269.533 275.587 268.081 276.629 266.883C277.684 265.672 278.927 264.754 280.359 264.129C281.805 263.491 283.4 263.172 285.145 263.172C286.902 263.172 288.504 263.491 289.949 264.129C291.395 264.754 292.638 265.672 293.68 266.883C294.721 268.081 295.522 269.533 296.082 271.238C296.655 272.931 296.941 274.852 296.941 277ZM292.039 278.562V276.961C292.039 275.372 291.883 273.973 291.57 272.762C291.271 271.538 290.822 270.516 290.223 269.695C289.637 268.862 288.914 268.237 288.055 267.82C287.195 267.391 286.225 267.176 285.145 267.176C284.064 267.176 283.1 267.391 282.254 267.82C281.408 268.237 280.685 268.862 280.086 269.695C279.5 270.516 279.051 271.538 278.738 272.762C278.426 273.973 278.27 275.372 278.27 276.961V278.562C278.27 280.151 278.426 281.557 278.738 282.781C279.051 284.005 279.507 285.04 280.105 285.887C280.717 286.72 281.447 287.352 282.293 287.781C283.139 288.198 284.103 288.406 285.184 288.406C286.277 288.406 287.247 288.198 288.094 287.781C288.94 287.352 289.656 286.72 290.242 285.887C290.828 285.04 291.271 284.005 291.57 282.781C291.883 281.557 292.039 280.151 292.039 278.562Z" fill="#FFB800"/>
<path d="M59 41.25C59 35.7799 61.4232 30.5339 65.7365 26.6659C70.0499 22.798 75.9 20.625 82 20.625H220C226.1 20.625 231.95 22.798 236.263 26.6659C240.577 30.5339 243 35.7799 243 41.25V92.8125H59V41.25ZM191.25 51.5625C189.725 51.5625 188.262 52.1057 187.184 53.0727C186.106 54.0397 185.5 55.3512 185.5 56.7188V67.0312C185.5 68.3988 186.106 69.7103 187.184 70.6773C188.262 71.6443 189.725 72.1875 191.25 72.1875H214.25C215.775 72.1875 217.238 71.6443 218.316 70.6773C219.394 69.7103 220 68.3988 220 67.0312V56.7188C220 55.3512 219.394 54.0397 218.316 53.0727C217.238 52.1057 215.775 51.5625 214.25 51.5625H191.25ZM59 113.438V123.75C59 129.22 61.4232 134.466 65.7365 138.334C70.0499 142.202 75.9 144.375 82 144.375H220C226.1 144.375 231.95 142.202 236.263 138.334C240.577 134.466 243 129.22 243 123.75V113.438H59Z" fill="white"/>
</g>
<defs>
<filter id="filter0_d_13_278" x="0.890625" y="0" width="300.051" height="300.391" filterUnits="userSpaceOnUse" color-interpolation-filters="sRGB">
<feFlood flood-opacity="0" result="BackgroundImageFix"/>
<feColorMatrix in="SourceAlpha" type="matrix" values="0 0 0 0 0 0 0 0 0 0 0 0 0 0 0 0 0 0 127 0" result="hardAlpha"/>
<feOffset dy="4"/>
<feGaussianBlur stdDeviation="2"/>
<feComposite in2="hardAlpha" operator="out"/>
<feColorMatrix type="matrix" values="0 0 0 0 0 0 0 0 0 0 0 0 0 0 0 0 0 0 0.25 0"/>
<feBlend mode="normal" in2="BackgroundImageFix" result="effect1_dropShadow_13_278"/>
<feBlend mode="normal" in="SourceGraphic" in2="effect1_dropShadow_13_278" result="shape"/>
</filter>
</defs>
</svg>
