<svg width="286" height="301" viewBox="0 0 286 301" fill="none" xmlns="http://www.w3.org/2000/svg">
<g filter="url(#filter0_d_13_280)">
<g clip-path="url(#clip0_13_280)">
<path fill-rule="evenodd" clip-rule="evenodd" d="M90.5312 0C83.6108 0 76.9737 2.74916 72.0802 7.64268C67.1867 12.5362 64.4375 19.1733 64.4375 26.0938V120.031C64.4375 128.569 68.5394 136.147 74.875 140.906V161.781C74.875 163.165 75.4248 164.493 76.4035 165.471C77.3822 166.45 78.7097 167 80.0938 167H100.969C102.353 167 103.68 166.45 104.659 165.471C105.638 164.493 106.188 163.165 106.188 161.781V146.125H168.812V161.781C168.812 163.165 169.362 164.493 170.341 165.471C171.32 166.45 172.647 167 174.031 167H194.906C196.29 167 197.618 166.45 198.596 165.471C199.575 164.493 200.125 163.165 200.125 161.781V140.906C206.461 136.147 210.562 128.569 210.562 120.031V26.0938C210.562 19.1733 207.813 12.5362 202.92 7.64268C198.026 2.74916 191.389 0 184.469 0L90.5312 0ZM85.3125 31.3125C85.3125 28.5443 86.4122 25.8895 88.3696 23.9321C90.327 21.9747 92.9818 20.875 95.75 20.875H179.25C182.018 20.875 184.673 21.9747 186.63 23.9321C188.588 25.8895 189.688 28.5443 189.688 31.3125V72.0188C189.688 78.5422 183.822 83.4165 177.476 82.3936C168.03 80.8593 150.108 78.2812 137.5 78.2812C124.892 78.2812 106.97 80.8593 97.5244 82.3936C96.0203 82.6385 94.481 82.5538 93.0129 82.1452C91.5448 81.7367 90.1829 81.0141 89.0216 80.0274C87.8602 79.0408 86.9271 77.8136 86.2866 76.4308C85.6462 75.048 85.3139 73.5426 85.3125 72.0188V31.3125ZM95.75 125.25C98.5182 125.25 101.173 124.15 103.13 122.193C105.088 120.236 106.188 117.581 106.188 114.812C106.188 112.044 105.088 109.389 103.13 107.432C101.173 105.475 98.5182 104.375 95.75 104.375C92.9818 104.375 90.327 105.475 88.3696 107.432C86.4122 109.389 85.3125 112.044 85.3125 114.812C85.3125 117.581 86.4122 120.236 88.3696 122.193C90.327 124.15 92.9818 125.25 95.75 125.25ZM179.25 125.25C182.018 125.25 184.673 124.15 186.63 122.193C188.588 120.236 189.688 117.581 189.688 114.812C189.688 112.044 188.588 109.389 186.63 107.432C184.673 105.475 182.018 104.375 179.25 104.375C176.482 104.375 173.827 105.475 171.87 107.432C169.912 109.389 168.812 112.044 168.812 114.812C168.812 117.581 169.912 120.236 171.87 122.193C173.827 124.15 176.482 125.25 179.25 125.25ZM127.062 104.375C124.294 104.375 121.639 105.475 119.682 107.432C117.725 109.389 116.625 112.044 116.625 114.812C116.625 117.581 117.725 120.236 119.682 122.193C121.639 124.15 124.294 125.25 127.062 125.25H147.938C150.706 125.25 153.361 124.15 155.318 122.193C157.275 120.236 158.375 117.581 158.375 114.812C158.375 112.044 157.275 109.389 155.318 107.432C153.361 105.475 150.706 104.375 147.938 104.375H127.062Z" fill="white"/>
</g>
<path d="M23.6523 223.395H16.25V219.508H23.6523C24.9414 219.508 25.9831 219.299 26.7773 218.883C27.5716 218.466 28.151 217.893 28.5156 217.164C28.8932 216.422 29.082 215.576 29.082 214.625C29.082 213.727 28.8932 212.887 28.5156 212.105C28.151 211.311 27.5716 210.673 26.7773 210.191C25.9831 209.71 24.9414 209.469 23.6523 209.469H17.7539V234H12.8516V205.562H23.6523C25.8529 205.562 27.7214 205.953 29.2578 206.734C30.8073 207.503 31.9857 208.57 32.793 209.938C33.6003 211.292 34.0039 212.841 34.0039 214.586C34.0039 216.422 33.6003 217.997 32.793 219.312C31.9857 220.628 30.8073 221.637 29.2578 222.34C27.7214 223.043 25.8529 223.395 23.6523 223.395ZM42.6562 216.891V234H37.9492V212.867H42.4414L42.6562 216.891ZM49.1211 212.73L49.082 217.105C48.7956 217.053 48.4831 217.014 48.1445 216.988C47.819 216.962 47.4935 216.949 47.168 216.949C46.3607 216.949 45.651 217.066 45.0391 217.301C44.4271 217.522 43.9128 217.848 43.4961 218.277C43.0924 218.694 42.7799 219.202 42.5586 219.801C42.3372 220.4 42.207 221.07 42.168 221.812L41.0938 221.891C41.0938 220.562 41.224 219.332 41.4844 218.199C41.7448 217.066 42.1354 216.07 42.6562 215.211C43.1901 214.352 43.8542 213.681 44.6484 213.199C45.4557 212.717 46.3867 212.477 47.4414 212.477C47.7279 212.477 48.0339 212.503 48.3594 212.555C48.6979 212.607 48.9518 212.665 49.1211 212.73ZM50.6641 223.668V223.219C50.6641 221.695 50.8854 220.283 51.3281 218.98C51.7708 217.665 52.4089 216.526 53.2422 215.562C54.0885 214.586 55.1172 213.831 56.3281 213.297C57.5521 212.75 58.9323 212.477 60.4688 212.477C62.0182 212.477 63.3984 212.75 64.6094 213.297C65.8333 213.831 66.8685 214.586 67.7148 215.562C68.5612 216.526 69.2057 217.665 69.6484 218.98C70.0911 220.283 70.3125 221.695 70.3125 223.219V223.668C70.3125 225.191 70.0911 226.604 69.6484 227.906C69.2057 229.208 68.5612 230.348 67.7148 231.324C66.8685 232.288 65.8398 233.043 64.6289 233.59C63.418 234.124 62.0443 234.391 60.5078 234.391C58.9583 234.391 57.5716 234.124 56.3477 233.59C55.1367 233.043 54.1081 232.288 53.2617 231.324C52.4154 230.348 51.7708 229.208 51.3281 227.906C50.8854 226.604 50.6641 225.191 50.6641 223.668ZM55.3711 223.219V223.668C55.3711 224.618 55.4688 225.517 55.6641 226.363C55.8594 227.21 56.1654 227.952 56.582 228.59C56.9987 229.228 57.5326 229.729 58.1836 230.094C58.8346 230.458 59.6094 230.641 60.5078 230.641C61.3802 230.641 62.1354 230.458 62.7734 230.094C63.4245 229.729 63.9583 229.228 64.375 228.59C64.7917 227.952 65.0977 227.21 65.293 226.363C65.5013 225.517 65.6055 224.618 65.6055 223.668V223.219C65.6055 222.281 65.5013 221.396 65.293 220.562C65.0977 219.716 64.7852 218.967 64.3555 218.316C63.9388 217.665 63.4049 217.158 62.7539 216.793C62.1159 216.415 61.3542 216.227 60.4688 216.227C59.5833 216.227 58.8151 216.415 58.1641 216.793C57.526 217.158 56.9987 217.665 56.582 218.316C56.1654 218.967 55.8594 219.716 55.6641 220.562C55.4688 221.396 55.3711 222.281 55.3711 223.219ZM87.1484 229.625V204H91.875V234H87.5977L87.1484 229.625ZM73.3984 223.668V223.258C73.3984 221.656 73.5872 220.198 73.9648 218.883C74.3424 217.555 74.8893 216.415 75.6055 215.465C76.3216 214.501 77.194 213.766 78.2227 213.258C79.2513 212.737 80.4102 212.477 81.6992 212.477C82.9753 212.477 84.0951 212.724 85.0586 213.219C86.0221 213.714 86.8424 214.423 87.5195 215.348C88.1966 216.259 88.737 217.353 89.1406 218.629C89.5443 219.892 89.8307 221.298 90 222.848V224.156C89.8307 225.667 89.5443 227.047 89.1406 228.297C88.737 229.547 88.1966 230.628 87.5195 231.539C86.8424 232.451 86.0156 233.154 85.0391 233.648C84.0755 234.143 82.9492 234.391 81.6602 234.391C80.3841 234.391 79.2318 234.124 78.2031 233.59C77.1875 233.056 76.3216 232.307 75.6055 231.344C74.8893 230.38 74.3424 229.247 73.9648 227.945C73.5872 226.63 73.3984 225.204 73.3984 223.668ZM78.1055 223.258V223.668C78.1055 224.632 78.1901 225.53 78.3594 226.363C78.5417 227.197 78.8216 227.932 79.1992 228.57C79.5768 229.195 80.0651 229.69 80.6641 230.055C81.276 230.406 82.0052 230.582 82.8516 230.582C83.9193 230.582 84.7982 230.348 85.4883 229.879C86.1784 229.41 86.7188 228.779 87.1094 227.984C87.513 227.177 87.7865 226.279 87.9297 225.289V221.754C87.8516 220.986 87.6888 220.27 87.4414 219.605C87.207 218.941 86.888 218.362 86.4844 217.867C86.0807 217.359 85.5794 216.969 84.9805 216.695C84.3945 216.409 83.6979 216.266 82.8906 216.266C82.0312 216.266 81.3021 216.448 80.7031 216.812C80.1042 217.177 79.6094 217.678 79.2188 218.316C78.8411 218.954 78.5612 219.697 78.3789 220.543C78.1966 221.389 78.1055 222.294 78.1055 223.258ZM109.512 229.02V212.867H114.238V234H109.785L109.512 229.02ZM110.176 224.625L111.758 224.586C111.758 226.005 111.602 227.314 111.289 228.512C110.977 229.697 110.495 230.732 109.844 231.617C109.193 232.49 108.359 233.173 107.344 233.668C106.328 234.15 105.111 234.391 103.691 234.391C102.663 234.391 101.719 234.241 100.859 233.941C100 233.642 99.2578 233.18 98.6328 232.555C98.0208 231.93 97.5456 231.116 97.207 230.113C96.8685 229.111 96.6992 227.913 96.6992 226.52V212.867H101.406V226.559C101.406 227.327 101.497 227.971 101.68 228.492C101.862 229 102.109 229.41 102.422 229.723C102.734 230.035 103.099 230.257 103.516 230.387C103.932 230.517 104.375 230.582 104.844 230.582C106.185 230.582 107.24 230.322 108.008 229.801C108.789 229.267 109.342 228.551 109.668 227.652C110.007 226.754 110.176 225.745 110.176 224.625ZM128.75 212.867V216.305H116.836V212.867H128.75ZM120.273 207.691H124.98V228.16C124.98 228.811 125.072 229.312 125.254 229.664C125.449 230.003 125.716 230.23 126.055 230.348C126.393 230.465 126.79 230.523 127.246 230.523C127.572 230.523 127.884 230.504 128.184 230.465C128.483 230.426 128.724 230.387 128.906 230.348L128.926 233.941C128.535 234.059 128.079 234.163 127.559 234.254C127.051 234.345 126.465 234.391 125.801 234.391C124.72 234.391 123.763 234.202 122.93 233.824C122.096 233.434 121.445 232.802 120.977 231.93C120.508 231.057 120.273 229.898 120.273 228.453V207.691ZM131.016 223.668V223.219C131.016 221.695 131.237 220.283 131.68 218.98C132.122 217.665 132.76 216.526 133.594 215.562C134.44 214.586 135.469 213.831 136.68 213.297C137.904 212.75 139.284 212.477 140.82 212.477C142.37 212.477 143.75 212.75 144.961 213.297C146.185 213.831 147.22 214.586 148.066 215.562C148.913 216.526 149.557 217.665 150 218.98C150.443 220.283 150.664 221.695 150.664 223.219V223.668C150.664 225.191 150.443 226.604 150 227.906C149.557 229.208 148.913 230.348 148.066 231.324C147.22 232.288 146.191 233.043 144.98 233.59C143.77 234.124 142.396 234.391 140.859 234.391C139.31 234.391 137.923 234.124 136.699 233.59C135.488 233.043 134.46 232.288 133.613 231.324C132.767 230.348 132.122 229.208 131.68 227.906C131.237 226.604 131.016 225.191 131.016 223.668ZM135.723 223.219V223.668C135.723 224.618 135.82 225.517 136.016 226.363C136.211 227.21 136.517 227.952 136.934 228.59C137.35 229.228 137.884 229.729 138.535 230.094C139.186 230.458 139.961 230.641 140.859 230.641C141.732 230.641 142.487 230.458 143.125 230.094C143.776 229.729 144.31 229.228 144.727 228.59C145.143 227.952 145.449 227.21 145.645 226.363C145.853 225.517 145.957 224.618 145.957 223.668V223.219C145.957 222.281 145.853 221.396 145.645 220.562C145.449 219.716 145.137 218.967 144.707 218.316C144.29 217.665 143.757 217.158 143.105 216.793C142.467 216.415 141.706 216.227 140.82 216.227C139.935 216.227 139.167 216.415 138.516 216.793C137.878 217.158 137.35 217.665 136.934 218.316C136.517 218.967 136.211 219.716 136.016 220.562C135.82 221.396 135.723 222.281 135.723 223.219ZM166.465 228.277C166.465 227.809 166.348 227.385 166.113 227.008C165.879 226.617 165.43 226.266 164.766 225.953C164.115 225.641 163.151 225.354 161.875 225.094C160.755 224.846 159.727 224.553 158.789 224.215C157.865 223.863 157.07 223.44 156.406 222.945C155.742 222.451 155.228 221.865 154.863 221.188C154.499 220.51 154.316 219.729 154.316 218.844C154.316 217.984 154.505 217.171 154.883 216.402C155.26 215.634 155.801 214.957 156.504 214.371C157.207 213.785 158.06 213.323 159.062 212.984C160.078 212.646 161.211 212.477 162.461 212.477C164.232 212.477 165.749 212.776 167.012 213.375C168.288 213.961 169.264 214.762 169.941 215.777C170.618 216.78 170.957 217.913 170.957 219.176H166.25C166.25 218.616 166.107 218.095 165.82 217.613C165.547 217.118 165.13 216.721 164.57 216.422C164.01 216.109 163.307 215.953 162.461 215.953C161.654 215.953 160.983 216.083 160.449 216.344C159.928 216.591 159.538 216.917 159.277 217.32C159.03 217.724 158.906 218.167 158.906 218.648C158.906 219 158.971 219.319 159.102 219.605C159.245 219.879 159.479 220.133 159.805 220.367C160.13 220.589 160.573 220.797 161.133 220.992C161.706 221.188 162.422 221.376 163.281 221.559C164.896 221.897 166.283 222.333 167.441 222.867C168.613 223.388 169.512 224.065 170.137 224.898C170.762 225.719 171.074 226.76 171.074 228.023C171.074 228.961 170.872 229.82 170.469 230.602C170.078 231.37 169.505 232.04 168.75 232.613C167.995 233.173 167.09 233.609 166.035 233.922C164.993 234.234 163.822 234.391 162.52 234.391C160.605 234.391 158.984 234.052 157.656 233.375C156.328 232.685 155.319 231.806 154.629 230.738C153.952 229.658 153.613 228.538 153.613 227.379H158.164C158.216 228.251 158.457 228.948 158.887 229.469C159.329 229.977 159.876 230.348 160.527 230.582C161.191 230.803 161.875 230.914 162.578 230.914C163.424 230.914 164.134 230.803 164.707 230.582C165.28 230.348 165.716 230.035 166.016 229.645C166.315 229.241 166.465 228.785 166.465 228.277ZM202.422 224.742H207.305C207.148 226.604 206.628 228.264 205.742 229.723C204.857 231.168 203.613 232.307 202.012 233.141C200.41 233.974 198.464 234.391 196.172 234.391C194.414 234.391 192.832 234.078 191.426 233.453C190.02 232.815 188.815 231.917 187.812 230.758C186.81 229.586 186.042 228.173 185.508 226.52C184.987 224.866 184.727 223.017 184.727 220.973V218.609C184.727 216.565 184.993 214.716 185.527 213.062C186.074 211.409 186.855 209.996 187.871 208.824C188.887 207.639 190.104 206.734 191.523 206.109C192.956 205.484 194.564 205.172 196.348 205.172C198.613 205.172 200.527 205.589 202.09 206.422C203.652 207.255 204.863 208.408 205.723 209.879C206.595 211.35 207.129 213.036 207.324 214.938H202.441C202.311 213.714 202.025 212.665 201.582 211.793C201.152 210.921 200.514 210.257 199.668 209.801C198.822 209.332 197.715 209.098 196.348 209.098C195.228 209.098 194.251 209.306 193.418 209.723C192.585 210.139 191.888 210.751 191.328 211.559C190.768 212.366 190.345 213.362 190.059 214.547C189.785 215.719 189.648 217.06 189.648 218.57V220.973C189.648 222.405 189.772 223.707 190.02 224.879C190.28 226.038 190.671 227.034 191.191 227.867C191.725 228.701 192.402 229.345 193.223 229.801C194.043 230.257 195.026 230.484 196.172 230.484C197.565 230.484 198.691 230.263 199.551 229.82C200.423 229.378 201.081 228.733 201.523 227.887C201.979 227.027 202.279 225.979 202.422 224.742ZM210.391 223.668V223.219C210.391 221.695 210.612 220.283 211.055 218.98C211.497 217.665 212.135 216.526 212.969 215.562C213.815 214.586 214.844 213.831 216.055 213.297C217.279 212.75 218.659 212.477 220.195 212.477C221.745 212.477 223.125 212.75 224.336 213.297C225.56 213.831 226.595 214.586 227.441 215.562C228.288 216.526 228.932 217.665 229.375 218.98C229.818 220.283 230.039 221.695 230.039 223.219V223.668C230.039 225.191 229.818 226.604 229.375 227.906C228.932 229.208 228.288 230.348 227.441 231.324C226.595 232.288 225.566 233.043 224.355 233.59C223.145 234.124 221.771 234.391 220.234 234.391C218.685 234.391 217.298 234.124 216.074 233.59C214.863 233.043 213.835 232.288 212.988 231.324C212.142 230.348 211.497 229.208 211.055 227.906C210.612 226.604 210.391 225.191 210.391 223.668ZM215.098 223.219V223.668C215.098 224.618 215.195 225.517 215.391 226.363C215.586 227.21 215.892 227.952 216.309 228.59C216.725 229.228 217.259 229.729 217.91 230.094C218.561 230.458 219.336 230.641 220.234 230.641C221.107 230.641 221.862 230.458 222.5 230.094C223.151 229.729 223.685 229.228 224.102 228.59C224.518 227.952 224.824 227.21 225.02 226.363C225.228 225.517 225.332 224.618 225.332 223.668V223.219C225.332 222.281 225.228 221.396 225.02 220.562C224.824 219.716 224.512 218.967 224.082 218.316C223.665 217.665 223.132 217.158 222.48 216.793C221.842 216.415 221.081 216.227 220.195 216.227C219.31 216.227 218.542 216.415 217.891 216.793C217.253 217.158 216.725 217.665 216.309 218.316C215.892 218.967 215.586 219.716 215.391 220.562C215.195 221.396 215.098 222.281 215.098 223.219ZM238.691 217.164V234H233.984V212.867H238.418L238.691 217.164ZM237.93 222.652L236.328 222.633C236.328 221.174 236.51 219.827 236.875 218.59C237.24 217.353 237.773 216.279 238.477 215.367C239.18 214.443 240.052 213.733 241.094 213.238C242.148 212.73 243.366 212.477 244.746 212.477C245.71 212.477 246.589 212.62 247.383 212.906C248.19 213.18 248.887 213.616 249.473 214.215C250.072 214.814 250.527 215.582 250.84 216.52C251.165 217.457 251.328 218.59 251.328 219.918V234H246.621V220.328C246.621 219.299 246.465 218.492 246.152 217.906C245.853 217.32 245.417 216.904 244.844 216.656C244.284 216.396 243.613 216.266 242.832 216.266C241.947 216.266 241.191 216.435 240.566 216.773C239.954 217.112 239.453 217.574 239.062 218.16C238.672 218.746 238.385 219.423 238.203 220.191C238.021 220.96 237.93 221.78 237.93 222.652ZM251.035 221.402L248.828 221.891C248.828 220.615 249.004 219.41 249.355 218.277C249.72 217.132 250.247 216.129 250.938 215.27C251.641 214.397 252.507 213.714 253.535 213.219C254.564 212.724 255.742 212.477 257.07 212.477C258.151 212.477 259.115 212.626 259.961 212.926C260.82 213.212 261.549 213.668 262.148 214.293C262.747 214.918 263.203 215.732 263.516 216.734C263.828 217.724 263.984 218.922 263.984 220.328V234H259.258V220.309C259.258 219.241 259.102 218.414 258.789 217.828C258.49 217.242 258.06 216.839 257.5 216.617C256.94 216.383 256.27 216.266 255.488 216.266C254.759 216.266 254.115 216.402 253.555 216.676C253.008 216.936 252.546 217.307 252.168 217.789C251.79 218.258 251.504 218.798 251.309 219.41C251.126 220.022 251.035 220.686 251.035 221.402Z" fill="white"/>
<path d="M30.0234 262.562V291H23.168V262.562H30.0234ZM41.0781 274.398V279.672H28.0703V274.398H41.0781ZM42.1914 262.562V267.855H28.0703V262.562H42.1914ZM50.8633 275.102V291H44.2812V269.867H50.4336L50.8633 275.102ZM57.1133 269.711L56.9961 275.824C56.7357 275.798 56.3841 275.766 55.9414 275.727C55.4987 275.688 55.1276 275.668 54.8281 275.668C54.0599 275.668 53.3958 275.759 52.8359 275.941C52.2891 276.111 51.8333 276.371 51.4688 276.723C51.1172 277.061 50.8568 277.491 50.6875 278.012C50.5312 278.533 50.4596 279.138 50.4727 279.828L49.2812 279.047C49.2812 277.628 49.418 276.339 49.6914 275.18C49.9779 274.008 50.3815 272.999 50.9023 272.152C51.4232 271.293 52.0547 270.635 52.7969 270.18C53.5391 269.711 54.3724 269.477 55.2969 269.477C55.6224 269.477 55.9414 269.496 56.2539 269.535C56.5794 269.574 56.8659 269.633 57.1133 269.711ZM69.2227 291.391C67.5039 291.391 65.9674 291.124 64.6133 290.59C63.2591 290.043 62.1133 289.294 61.1758 288.344C60.2513 287.393 59.5417 286.299 59.0469 285.062C58.5651 283.826 58.3242 282.517 58.3242 281.137V280.395C58.3242 278.845 58.5391 277.413 58.9688 276.098C59.3984 274.77 60.0365 273.611 60.8828 272.621C61.7292 271.632 62.7904 270.863 64.0664 270.316C65.3424 269.757 66.8268 269.477 68.5195 269.477C70.0169 269.477 71.3581 269.717 72.543 270.199C73.7279 270.681 74.7305 271.371 75.5508 272.27C76.3841 273.168 77.0156 274.255 77.4453 275.531C77.888 276.807 78.1094 278.24 78.1094 279.828V282.504H60.8438V278.383H71.6836V277.875C71.6966 277.172 71.5729 276.573 71.3125 276.078C71.0651 275.583 70.7005 275.206 70.2188 274.945C69.737 274.685 69.151 274.555 68.4609 274.555C67.7448 274.555 67.1523 274.711 66.6836 275.023C66.2279 275.336 65.8698 275.766 65.6094 276.312C65.362 276.846 65.1862 277.465 65.082 278.168C64.9779 278.871 64.9258 279.613 64.9258 280.395V281.137C64.9258 281.918 65.0299 282.628 65.2383 283.266C65.4596 283.904 65.7721 284.451 66.1758 284.906C66.5924 285.349 67.0872 285.694 67.6602 285.941C68.2461 286.189 68.9102 286.312 69.6523 286.312C70.5508 286.312 71.4362 286.143 72.3086 285.805C73.181 285.466 73.9297 284.906 74.5547 284.125L77.543 287.68C77.1133 288.292 76.5013 288.884 75.707 289.457C74.9258 290.03 73.9883 290.499 72.8945 290.863C71.8008 291.215 70.5768 291.391 69.2227 291.391ZM91.918 269.867V274.438H79.1836V269.867H91.918ZM81.8594 264.613H88.4414V284.105C88.4414 284.665 88.5065 285.102 88.6367 285.414C88.7669 285.714 88.9883 285.928 89.3008 286.059C89.6263 286.176 90.056 286.234 90.5898 286.234C90.9674 286.234 91.2799 286.228 91.5273 286.215C91.7747 286.189 92.0091 286.156 92.2305 286.117V290.824C91.6706 291.007 91.0846 291.143 90.4727 291.234C89.8607 291.339 89.2096 291.391 88.5195 291.391C87.1133 291.391 85.9089 291.169 84.9062 290.727C83.9167 290.284 83.1615 289.587 82.6406 288.637C82.1198 287.686 81.8594 286.449 81.8594 284.926V264.613ZM104.77 291.391C103.051 291.391 101.514 291.124 100.16 290.59C98.806 290.043 97.6602 289.294 96.7227 288.344C95.7982 287.393 95.0885 286.299 94.5938 285.062C94.112 283.826 93.8711 282.517 93.8711 281.137V280.395C93.8711 278.845 94.0859 277.413 94.5156 276.098C94.9453 274.77 95.5833 273.611 96.4297 272.621C97.276 271.632 98.3372 270.863 99.6133 270.316C100.889 269.757 102.374 269.477 104.066 269.477C105.564 269.477 106.905 269.717 108.09 270.199C109.275 270.681 110.277 271.371 111.098 272.27C111.931 273.168 112.562 274.255 112.992 275.531C113.435 276.807 113.656 278.24 113.656 279.828V282.504H96.3906V278.383H107.23V277.875C107.243 277.172 107.12 276.573 106.859 276.078C106.612 275.583 106.247 275.206 105.766 274.945C105.284 274.685 104.698 274.555 104.008 274.555C103.292 274.555 102.699 274.711 102.23 275.023C101.775 275.336 101.417 275.766 101.156 276.312C100.909 276.846 100.733 277.465 100.629 278.168C100.525 278.871 100.473 279.613 100.473 280.395V281.137C100.473 281.918 100.577 282.628 100.785 283.266C101.007 283.904 101.319 284.451 101.723 284.906C102.139 285.349 102.634 285.694 103.207 285.941C103.793 286.189 104.457 286.312 105.199 286.312C106.098 286.312 106.983 286.143 107.855 285.805C108.728 285.466 109.477 284.906 110.102 284.125L113.09 287.68C112.66 288.292 112.048 288.884 111.254 289.457C110.473 290.03 109.535 290.499 108.441 290.863C107.348 291.215 106.124 291.391 104.77 291.391ZM149.867 275.805V287.484C149.385 288.018 148.643 288.591 147.641 289.203C146.651 289.802 145.401 290.316 143.891 290.746C142.38 291.176 140.603 291.391 138.559 291.391C136.671 291.391 134.958 291.091 133.422 290.492C131.885 289.88 130.564 288.988 129.457 287.816C128.363 286.632 127.517 285.186 126.918 283.48C126.332 281.762 126.039 279.796 126.039 277.582V276C126.039 273.786 126.339 271.82 126.938 270.102C127.536 268.383 128.376 266.938 129.457 265.766C130.551 264.581 131.833 263.682 133.305 263.07C134.789 262.458 136.417 262.152 138.188 262.152C140.805 262.152 142.934 262.569 144.574 263.402C146.215 264.223 147.458 265.362 148.305 266.82C149.151 268.266 149.665 269.939 149.848 271.84H143.266C143.135 270.902 142.888 270.108 142.523 269.457C142.172 268.793 141.664 268.292 141 267.953C140.336 267.602 139.477 267.426 138.422 267.426C137.602 267.426 136.853 267.602 136.176 267.953C135.512 268.305 134.945 268.839 134.477 269.555C134.008 270.258 133.643 271.143 133.383 272.211C133.135 273.279 133.012 274.529 133.012 275.961V277.582C133.012 279.001 133.129 280.245 133.363 281.312C133.611 282.38 133.975 283.272 134.457 283.988C134.952 284.691 135.577 285.225 136.332 285.59C137.1 285.941 138.005 286.117 139.047 286.117C139.776 286.117 140.401 286.059 140.922 285.941C141.443 285.811 141.872 285.655 142.211 285.473C142.562 285.277 142.829 285.095 143.012 284.926V280.512H138.246V275.805H149.867ZM153.871 262.562H165.062C167.25 262.562 169.151 262.888 170.766 263.539C172.38 264.19 173.624 265.154 174.496 266.43C175.382 267.706 175.824 269.281 175.824 271.156C175.824 272.784 175.57 274.145 175.062 275.238C174.555 276.332 173.845 277.237 172.934 277.953C172.035 278.656 170.987 279.236 169.789 279.691L167.543 280.961H158.148L158.109 275.668H165.062C165.935 275.668 166.658 275.512 167.23 275.199C167.803 274.887 168.233 274.444 168.52 273.871C168.819 273.285 168.969 272.589 168.969 271.781C168.969 270.961 168.819 270.258 168.52 269.672C168.22 269.086 167.777 268.637 167.191 268.324C166.618 268.012 165.909 267.855 165.062 267.855H160.727V291H153.871V262.562ZM169.438 291L163.148 278.422L170.414 278.383L176.781 290.707V291H169.438ZM192.016 268.539L185.082 291H177.719L188.168 262.562H192.836L192.016 268.539ZM197.758 291L190.805 268.539L189.906 262.562H194.633L205.141 291H197.758ZM197.484 280.395V285.688H182.895V280.395H197.484ZM188.441 261.078L192.309 254.945H199.262L193.812 261.078H188.441ZM218.656 262.562V291H211.801V262.562H218.656ZM227.211 262.562V267.855H203.441V262.562H227.211ZM237.406 262.562V291H230.57V262.562H237.406ZM256.879 283.441C256.879 282.999 256.814 282.602 256.684 282.25C256.553 281.885 256.312 281.547 255.961 281.234C255.609 280.922 255.102 280.609 254.438 280.297C253.786 279.971 252.927 279.633 251.859 279.281C250.609 278.865 249.405 278.396 248.246 277.875C247.087 277.341 246.052 276.723 245.141 276.02C244.229 275.303 243.507 274.47 242.973 273.52C242.439 272.556 242.172 271.436 242.172 270.16C242.172 268.936 242.445 267.836 242.992 266.859C243.539 265.87 244.301 265.03 245.277 264.34C246.267 263.637 247.426 263.103 248.754 262.738C250.082 262.361 251.534 262.172 253.109 262.172C255.193 262.172 257.029 262.536 258.617 263.266C260.219 263.982 261.469 265.004 262.367 266.332C263.279 267.647 263.734 269.203 263.734 271H256.918C256.918 270.284 256.768 269.652 256.469 269.105C256.182 268.559 255.746 268.129 255.16 267.816C254.574 267.504 253.839 267.348 252.953 267.348C252.094 267.348 251.371 267.478 250.785 267.738C250.199 267.999 249.757 268.35 249.457 268.793C249.158 269.223 249.008 269.698 249.008 270.219C249.008 270.648 249.125 271.039 249.359 271.391C249.607 271.729 249.952 272.048 250.395 272.348C250.85 272.647 251.397 272.934 252.035 273.207C252.686 273.48 253.415 273.747 254.223 274.008C255.733 274.49 257.074 275.03 258.246 275.629C259.431 276.215 260.427 276.885 261.234 277.641C262.055 278.383 262.673 279.229 263.09 280.18C263.52 281.13 263.734 282.204 263.734 283.402C263.734 284.678 263.487 285.811 262.992 286.801C262.497 287.79 261.788 288.63 260.863 289.32C259.939 289.997 258.832 290.512 257.543 290.863C256.254 291.215 254.815 291.391 253.227 291.391C251.768 291.391 250.329 291.208 248.91 290.844C247.504 290.466 246.228 289.893 245.082 289.125C243.936 288.344 243.018 287.348 242.328 286.137C241.651 284.913 241.312 283.461 241.312 281.781H248.188C248.188 282.615 248.298 283.318 248.52 283.891C248.741 284.464 249.066 284.926 249.496 285.277C249.926 285.616 250.453 285.863 251.078 286.02C251.703 286.163 252.419 286.234 253.227 286.234C254.099 286.234 254.802 286.111 255.336 285.863C255.87 285.603 256.26 285.264 256.508 284.848C256.755 284.418 256.879 283.949 256.879 283.441Z" fill="#FFB800"/>
</g>
<defs>
<filter id="filter0_d_13_280" x="8.85156" y="0" width="259.133" height="299.391" filterUnits="userSpaceOnUse" color-interpolation-filters="sRGB">
<feFlood flood-opacity="0" result="BackgroundImageFix"/>
<feColorMatrix in="SourceAlpha" type="matrix" values="0 0 0 0 0 0 0 0 0 0 0 0 0 0 0 0 0 0 127 0" result="hardAlpha"/>
<feOffset dy="4"/>
<feGaussianBlur stdDeviation="2"/>
<feComposite in2="hardAlpha" operator="out"/>
<feColorMatrix type="matrix" values="0 0 0 0 0 0 0 0 0 0 0 0 0 0 0 0 0 0 0.25 0"/>
<feBlend mode="normal" in2="BackgroundImageFix" result="effect1_dropShadow_13_280"/>
<feBlend mode="normal" in="SourceGraphic" in2="effect1_dropShadow_13_280" result="shape"/>
</filter>
<clipPath id="clip0_13_280">
<rect width="167" height="167" fill="white" transform="translate(54)"/>
</clipPath>
</defs>
</svg>
