<svg width="461" height="307" viewBox="0 0 461 307" fill="none" xmlns="http://www.w3.org/2000/svg">
<g filter="url(#filter0_d_13_279)">
<path d="M60.5039 236.113V240H45.4062V236.113H60.5039ZM46.793 211.562V240H41.8906V211.562H46.793ZM58.5312 223.438V227.266H45.4062V223.438H58.5312ZM60.4062 211.562V215.469H45.4062V211.562H60.4062ZM87.0664 211.562V240H82.1641L69.4102 219.629V240H64.5078V211.562H69.4102L82.2031 231.973V211.562H87.0664ZM104.02 211.562V240H99.1562V211.562H104.02ZM112.945 211.562V215.469H90.3086V211.562H112.945ZM116.695 211.562H126.754C128.915 211.562 130.758 211.888 132.281 212.539C133.805 213.19 134.97 214.154 135.777 215.43C136.598 216.693 137.008 218.255 137.008 220.117C137.008 221.536 136.747 222.786 136.227 223.867C135.706 224.948 134.97 225.859 134.02 226.602C133.069 227.331 131.936 227.897 130.621 228.301L129.137 229.023H120.094L120.055 225.137H126.832C128.004 225.137 128.98 224.928 129.762 224.512C130.543 224.095 131.129 223.529 131.52 222.812C131.923 222.083 132.125 221.263 132.125 220.352C132.125 219.362 131.93 218.503 131.539 217.773C131.161 217.031 130.576 216.465 129.781 216.074C128.987 215.671 127.978 215.469 126.754 215.469H121.598V240H116.695V211.562ZM132.926 240L126.246 227.227L131.383 227.207L138.16 239.746V240H132.926ZM160.504 236.113V240H145.406V236.113H160.504ZM146.793 211.562V240H141.891V211.562H146.793ZM158.531 223.438V227.266H145.406V223.438H158.531ZM160.406 211.562V215.469H145.406V211.562H160.406ZM186.344 225.469V236.328C185.94 236.862 185.309 237.448 184.449 238.086C183.603 238.711 182.477 239.251 181.07 239.707C179.664 240.163 177.913 240.391 175.816 240.391C174.033 240.391 172.398 240.091 170.914 239.492C169.43 238.88 168.147 237.988 167.066 236.816C165.999 235.645 165.172 234.219 164.586 232.539C164 230.846 163.707 228.919 163.707 226.758V224.785C163.707 222.637 163.974 220.723 164.508 219.043C165.055 217.35 165.836 215.918 166.852 214.746C167.867 213.574 169.091 212.689 170.523 212.09C171.969 211.478 173.603 211.172 175.426 211.172C177.757 211.172 179.684 211.562 181.207 212.344C182.743 213.112 183.928 214.18 184.762 215.547C185.595 216.914 186.122 218.477 186.344 220.234H181.539C181.383 219.245 181.077 218.359 180.621 217.578C180.178 216.797 179.54 216.185 178.707 215.742C177.887 215.286 176.819 215.059 175.504 215.059C174.371 215.059 173.375 215.273 172.516 215.703C171.656 216.133 170.94 216.764 170.367 217.598C169.807 218.431 169.384 219.447 169.098 220.645C168.811 221.842 168.668 223.21 168.668 224.746V226.758C168.668 228.32 168.831 229.707 169.156 230.918C169.495 232.129 169.977 233.151 170.602 233.984C171.24 234.818 172.014 235.449 172.926 235.879C173.837 236.296 174.866 236.504 176.012 236.504C177.132 236.504 178.049 236.413 178.766 236.23C179.482 236.035 180.048 235.807 180.465 235.547C180.895 235.273 181.227 235.013 181.461 234.766V229.121H175.543V225.469H186.344ZM202.848 215.352L194.352 240H189.215L199.918 211.562H203.199L202.848 215.352ZM209.957 240L201.441 215.352L201.07 211.562H204.371L215.113 240H209.957ZM209.547 229.453V233.34H194.078V229.453H209.547ZM246.871 236.113V240H231.773V236.113H246.871ZM233.16 211.562V240H228.258V211.562H233.16ZM244.898 223.438V227.266H231.773V223.438H244.898ZM246.773 211.562V215.469H231.773V211.562H246.773ZM254.605 211.562L260.641 221.934L266.676 211.562H272.32L263.727 225.645L272.535 240H266.832L260.641 229.434L254.449 240H248.727L257.555 225.645L248.941 211.562H254.605ZM286.949 229.395H279.547V225.508H286.949C288.238 225.508 289.28 225.299 290.074 224.883C290.868 224.466 291.448 223.893 291.812 223.164C292.19 222.422 292.379 221.576 292.379 220.625C292.379 219.727 292.19 218.887 291.812 218.105C291.448 217.311 290.868 216.673 290.074 216.191C289.28 215.71 288.238 215.469 286.949 215.469H281.051V240H276.148V211.562H286.949C289.15 211.562 291.018 211.953 292.555 212.734C294.104 213.503 295.283 214.57 296.09 215.938C296.897 217.292 297.301 218.841 297.301 220.586C297.301 222.422 296.897 223.997 296.09 225.312C295.283 226.628 294.104 227.637 292.555 228.34C291.018 229.043 289.15 229.395 286.949 229.395ZM301.695 211.562H311.754C313.915 211.562 315.758 211.888 317.281 212.539C318.805 213.19 319.97 214.154 320.777 215.43C321.598 216.693 322.008 218.255 322.008 220.117C322.008 221.536 321.747 222.786 321.227 223.867C320.706 224.948 319.97 225.859 319.02 226.602C318.069 227.331 316.936 227.897 315.621 228.301L314.137 229.023H305.094L305.055 225.137H311.832C313.004 225.137 313.98 224.928 314.762 224.512C315.543 224.095 316.129 223.529 316.52 222.812C316.923 222.083 317.125 221.263 317.125 220.352C317.125 219.362 316.93 218.503 316.539 217.773C316.161 217.031 315.576 216.465 314.781 216.074C313.987 215.671 312.978 215.469 311.754 215.469H306.598V240H301.695V211.562ZM317.926 240L311.246 227.227L316.383 227.207L323.16 239.746V240H317.926ZM345.504 236.113V240H330.406V236.113H345.504ZM331.793 211.562V240H326.891V211.562H331.793ZM343.531 223.438V227.266H330.406V223.438H343.531ZM345.406 211.562V215.469H330.406V211.562H345.406ZM364.469 232.676C364.469 232.09 364.378 231.569 364.195 231.113C364.026 230.658 363.72 230.241 363.277 229.863C362.835 229.486 362.21 229.121 361.402 228.77C360.608 228.405 359.592 228.034 358.355 227.656C357.001 227.24 355.751 226.777 354.605 226.27C353.473 225.749 352.483 225.15 351.637 224.473C350.79 223.783 350.133 222.995 349.664 222.109C349.195 221.211 348.961 220.176 348.961 219.004C348.961 217.845 349.202 216.79 349.684 215.84C350.178 214.889 350.875 214.069 351.773 213.379C352.685 212.676 353.759 212.135 354.996 211.758C356.233 211.367 357.6 211.172 359.098 211.172C361.207 211.172 363.023 211.562 364.547 212.344C366.083 213.125 367.262 214.173 368.082 215.488C368.915 216.803 369.332 218.255 369.332 219.844H364.469C364.469 218.906 364.267 218.079 363.863 217.363C363.473 216.634 362.874 216.061 362.066 215.645C361.272 215.228 360.263 215.02 359.039 215.02C357.88 215.02 356.917 215.195 356.148 215.547C355.38 215.898 354.807 216.374 354.43 216.973C354.052 217.572 353.863 218.249 353.863 219.004C353.863 219.538 353.987 220.026 354.234 220.469C354.482 220.898 354.859 221.302 355.367 221.68C355.875 222.044 356.513 222.389 357.281 222.715C358.049 223.04 358.954 223.353 359.996 223.652C361.572 224.121 362.945 224.642 364.117 225.215C365.289 225.775 366.266 226.413 367.047 227.129C367.828 227.845 368.414 228.659 368.805 229.57C369.195 230.469 369.391 231.491 369.391 232.637C369.391 233.835 369.15 234.915 368.668 235.879C368.186 236.829 367.496 237.643 366.598 238.32C365.712 238.984 364.645 239.499 363.395 239.863C362.158 240.215 360.777 240.391 359.254 240.391C357.887 240.391 356.539 240.208 355.211 239.844C353.896 239.479 352.698 238.926 351.617 238.184C350.536 237.428 349.677 236.491 349.039 235.371C348.401 234.238 348.082 232.917 348.082 231.406H352.984C352.984 232.331 353.141 233.118 353.453 233.77C353.779 234.421 354.228 234.954 354.801 235.371C355.374 235.775 356.038 236.074 356.793 236.27C357.561 236.465 358.382 236.562 359.254 236.562C360.4 236.562 361.357 236.4 362.125 236.074C362.906 235.749 363.492 235.293 363.883 234.707C364.273 234.121 364.469 233.444 364.469 232.676ZM388.688 232.676C388.688 232.09 388.596 231.569 388.414 231.113C388.245 230.658 387.939 230.241 387.496 229.863C387.053 229.486 386.428 229.121 385.621 228.77C384.827 228.405 383.811 228.034 382.574 227.656C381.22 227.24 379.97 226.777 378.824 226.27C377.691 225.749 376.702 225.15 375.855 224.473C375.009 223.783 374.352 222.995 373.883 222.109C373.414 221.211 373.18 220.176 373.18 219.004C373.18 217.845 373.421 216.79 373.902 215.84C374.397 214.889 375.094 214.069 375.992 213.379C376.904 212.676 377.978 212.135 379.215 211.758C380.452 211.367 381.819 211.172 383.316 211.172C385.426 211.172 387.242 211.562 388.766 212.344C390.302 213.125 391.48 214.173 392.301 215.488C393.134 216.803 393.551 218.255 393.551 219.844H388.688C388.688 218.906 388.486 218.079 388.082 217.363C387.691 216.634 387.092 216.061 386.285 215.645C385.491 215.228 384.482 215.02 383.258 215.02C382.099 215.02 381.135 215.195 380.367 215.547C379.599 215.898 379.026 216.374 378.648 216.973C378.271 217.572 378.082 218.249 378.082 219.004C378.082 219.538 378.206 220.026 378.453 220.469C378.701 220.898 379.078 221.302 379.586 221.68C380.094 222.044 380.732 222.389 381.5 222.715C382.268 223.04 383.173 223.353 384.215 223.652C385.79 224.121 387.164 224.642 388.336 225.215C389.508 225.775 390.484 226.413 391.266 227.129C392.047 227.845 392.633 228.659 393.023 229.57C393.414 230.469 393.609 231.491 393.609 232.637C393.609 233.835 393.368 234.915 392.887 235.879C392.405 236.829 391.715 237.643 390.816 238.32C389.931 238.984 388.863 239.499 387.613 239.863C386.376 240.215 384.996 240.391 383.473 240.391C382.105 240.391 380.758 240.208 379.43 239.844C378.115 239.479 376.917 238.926 375.836 238.184C374.755 237.428 373.896 236.491 373.258 235.371C372.62 234.238 372.301 232.917 372.301 231.406H377.203C377.203 232.331 377.359 233.118 377.672 233.77C377.997 234.421 378.447 234.954 379.02 235.371C379.592 235.775 380.257 236.074 381.012 236.27C381.78 236.465 382.6 236.562 383.473 236.562C384.618 236.562 385.576 236.4 386.344 236.074C387.125 235.749 387.711 235.293 388.102 234.707C388.492 234.121 388.688 233.444 388.688 232.676ZM409.02 215.352L400.523 240H395.387L406.09 211.562H409.371L409.02 215.352ZM416.129 240L407.613 215.352L407.242 211.562H410.543L421.285 240H416.129ZM415.719 229.453V233.34H400.25V229.453H415.719Z" fill="white"/>
<path d="M19.2188 274.539L12.2852 297H4.92188L15.3711 268.562H20.0391L19.2188 274.539ZM24.9609 297L18.0078 274.539L17.1094 268.562H21.8359L32.3438 297H24.9609ZM24.6875 286.395V291.688H10.0977V286.395H24.6875ZM55.7422 287.352H48.6719V282.059H55.7422C56.7057 282.059 57.487 281.896 58.0859 281.57C58.6849 281.245 59.1211 280.796 59.3945 280.223C59.681 279.637 59.8242 278.979 59.8242 278.25C59.8242 277.469 59.681 276.746 59.3945 276.082C59.1211 275.418 58.6849 274.884 58.0859 274.48C57.487 274.064 56.7057 273.855 55.7422 273.855H51.25V297H44.3945V268.562H55.7422C58.0208 268.562 59.9805 268.979 61.6211 269.812C63.2747 270.646 64.5443 271.792 65.4297 273.25C66.3151 274.695 66.7578 276.349 66.7578 278.211C66.7578 280.047 66.3151 281.648 65.4297 283.016C64.5443 284.383 63.2747 285.451 61.6211 286.219C59.9805 286.974 58.0208 287.352 55.7422 287.352ZM80.8789 291.688V282.977C80.8789 282.378 80.7943 281.863 80.625 281.434C80.4557 281.004 80.1888 280.672 79.8242 280.438C79.4596 280.19 78.9714 280.066 78.3594 280.066C77.8646 280.066 77.4414 280.151 77.0898 280.32C76.7383 280.49 76.4714 280.743 76.2891 281.082C76.1068 281.421 76.0156 281.85 76.0156 282.371H69.4336C69.4336 281.395 69.6484 280.49 70.0781 279.656C70.5208 278.81 71.1458 278.074 71.9531 277.449C72.7734 276.824 73.75 276.342 74.8828 276.004C76.0286 275.652 77.3047 275.477 78.7109 275.477C80.3906 275.477 81.888 275.757 83.2031 276.316C84.5312 276.876 85.5794 277.716 86.3477 278.836C87.1159 279.943 87.5 281.336 87.5 283.016V291.668C87.5 293.048 87.5781 294.096 87.7344 294.812C87.8906 295.516 88.112 296.134 88.3984 296.668V297H81.7969C81.4844 296.349 81.25 295.555 81.0938 294.617C80.9505 293.667 80.8789 292.69 80.8789 291.688ZM81.6797 284.09L81.7188 287.605H78.8086C78.1966 287.605 77.6758 287.69 77.2461 287.859C76.8294 288.029 76.4909 288.263 76.2305 288.562C75.9831 288.849 75.8008 289.174 75.6836 289.539C75.5794 289.904 75.5273 290.288 75.5273 290.691C75.5273 291.082 75.6185 291.434 75.8008 291.746C75.9961 292.046 76.2565 292.28 76.582 292.449C76.9076 292.618 77.2721 292.703 77.6758 292.703C78.4049 292.703 79.0234 292.566 79.5312 292.293C80.0521 292.007 80.4492 291.661 80.7227 291.258C80.9961 290.854 81.1328 290.477 81.1328 290.125L82.5781 292.82C82.3177 293.341 82.0182 293.868 81.6797 294.402C81.3542 294.936 80.944 295.431 80.4492 295.887C79.9674 296.329 79.375 296.694 78.6719 296.98C77.9688 297.254 77.1159 297.391 76.1133 297.391C74.8112 297.391 73.6133 297.124 72.5195 296.59C71.4388 296.056 70.5729 295.314 69.9219 294.363C69.2708 293.4 68.9453 292.293 68.9453 291.043C68.9453 289.949 69.1406 288.973 69.5312 288.113C69.9349 287.254 70.5404 286.525 71.3477 285.926C72.1549 285.327 73.1836 284.871 74.4336 284.559C75.6836 284.246 77.1549 284.09 78.8477 284.09H81.6797ZM97.793 281.102V297H91.2109V275.867H97.3633L97.793 281.102ZM104.043 275.711L103.926 281.824C103.665 281.798 103.314 281.766 102.871 281.727C102.428 281.688 102.057 281.668 101.758 281.668C100.99 281.668 100.326 281.759 99.7656 281.941C99.2188 282.111 98.763 282.371 98.3984 282.723C98.0469 283.061 97.7865 283.491 97.6172 284.012C97.4609 284.533 97.3893 285.138 97.4023 285.828L96.2109 285.047C96.2109 283.628 96.3477 282.339 96.6211 281.18C96.9076 280.008 97.3112 278.999 97.832 278.152C98.3529 277.293 98.9844 276.635 99.7266 276.18C100.469 275.711 101.302 275.477 102.227 275.477C102.552 275.477 102.871 275.496 103.184 275.535C103.509 275.574 103.796 275.633 104.043 275.711ZM118.418 275.867V280.438H105.684V275.867H118.418ZM108.359 270.613H114.941V290.105C114.941 290.665 115.007 291.102 115.137 291.414C115.267 291.714 115.488 291.928 115.801 292.059C116.126 292.176 116.556 292.234 117.09 292.234C117.467 292.234 117.78 292.228 118.027 292.215C118.275 292.189 118.509 292.156 118.73 292.117V296.824C118.171 297.007 117.585 297.143 116.973 297.234C116.361 297.339 115.71 297.391 115.02 297.391C113.613 297.391 112.409 297.169 111.406 296.727C110.417 296.284 109.661 295.587 109.141 294.637C108.62 293.686 108.359 292.449 108.359 290.926V270.613ZM127.988 275.867V297H121.387V275.867H127.988ZM120.996 270.418C120.996 269.48 121.335 268.712 122.012 268.113C122.689 267.514 123.568 267.215 124.648 267.215C125.729 267.215 126.608 267.514 127.285 268.113C127.962 268.712 128.301 269.48 128.301 270.418C128.301 271.355 127.962 272.124 127.285 272.723C126.608 273.322 125.729 273.621 124.648 273.621C123.568 273.621 122.689 273.322 122.012 272.723C121.335 272.124 120.996 271.355 120.996 270.418ZM138.691 281.102V297H132.109V275.867H138.262L138.691 281.102ZM144.941 275.711L144.824 281.824C144.564 281.798 144.212 281.766 143.77 281.727C143.327 281.688 142.956 281.668 142.656 281.668C141.888 281.668 141.224 281.759 140.664 281.941C140.117 282.111 139.661 282.371 139.297 282.723C138.945 283.061 138.685 283.491 138.516 284.012C138.359 284.533 138.288 285.138 138.301 285.828L137.109 285.047C137.109 283.628 137.246 282.339 137.52 281.18C137.806 280.008 138.21 278.999 138.73 278.152C139.251 277.293 139.883 276.635 140.625 276.18C141.367 275.711 142.201 275.477 143.125 275.477C143.451 275.477 143.77 275.496 144.082 275.535C144.408 275.574 144.694 275.633 144.941 275.711ZM166.719 297H160.41L160.449 291.727H166.719C168.021 291.727 169.121 291.414 170.02 290.789C170.931 290.164 171.621 289.233 172.09 287.996C172.572 286.746 172.812 285.21 172.812 283.387V282.156C172.812 280.789 172.676 279.591 172.402 278.562C172.142 277.521 171.751 276.655 171.23 275.965C170.71 275.262 170.059 274.734 169.277 274.383C168.509 274.031 167.624 273.855 166.621 273.855H160.293V268.562H166.621C168.548 268.562 170.312 268.895 171.914 269.559C173.529 270.21 174.922 271.147 176.094 272.371C177.279 273.582 178.19 275.021 178.828 276.688C179.479 278.341 179.805 280.177 179.805 282.195V283.387C179.805 285.392 179.479 287.228 178.828 288.895C178.19 290.561 177.285 292 176.113 293.211C174.941 294.422 173.555 295.359 171.953 296.023C170.365 296.674 168.62 297 166.719 297ZM164.336 268.562V297H157.48V268.562H164.336ZM193.301 297.391C191.582 297.391 190.046 297.124 188.691 296.59C187.337 296.043 186.191 295.294 185.254 294.344C184.329 293.393 183.62 292.299 183.125 291.062C182.643 289.826 182.402 288.517 182.402 287.137V286.395C182.402 284.845 182.617 283.413 183.047 282.098C183.477 280.77 184.115 279.611 184.961 278.621C185.807 277.632 186.868 276.863 188.145 276.316C189.421 275.757 190.905 275.477 192.598 275.477C194.095 275.477 195.436 275.717 196.621 276.199C197.806 276.681 198.809 277.371 199.629 278.27C200.462 279.168 201.094 280.255 201.523 281.531C201.966 282.807 202.188 284.24 202.188 285.828V288.504H184.922V284.383H195.762V283.875C195.775 283.172 195.651 282.573 195.391 282.078C195.143 281.583 194.779 281.206 194.297 280.945C193.815 280.685 193.229 280.555 192.539 280.555C191.823 280.555 191.23 280.711 190.762 281.023C190.306 281.336 189.948 281.766 189.688 282.312C189.44 282.846 189.264 283.465 189.16 284.168C189.056 284.871 189.004 285.613 189.004 286.395V287.137C189.004 287.918 189.108 288.628 189.316 289.266C189.538 289.904 189.85 290.451 190.254 290.906C190.671 291.349 191.165 291.694 191.738 291.941C192.324 292.189 192.988 292.312 193.73 292.312C194.629 292.312 195.514 292.143 196.387 291.805C197.259 291.466 198.008 290.906 198.633 290.125L201.621 293.68C201.191 294.292 200.579 294.884 199.785 295.457C199.004 296.03 198.066 296.499 196.973 296.863C195.879 297.215 194.655 297.391 193.301 297.391ZM234.57 291.922V297H214.727V292.703L223.867 283.094C224.674 282.169 225.326 281.342 225.82 280.613C226.315 279.871 226.673 279.201 226.895 278.602C227.129 278.003 227.246 277.462 227.246 276.98C227.246 276.16 227.122 275.477 226.875 274.93C226.641 274.37 226.289 273.947 225.82 273.66C225.365 273.374 224.798 273.23 224.121 273.23C223.444 273.23 222.852 273.426 222.344 273.816C221.836 274.207 221.439 274.741 221.152 275.418C220.879 276.095 220.742 276.857 220.742 277.703H214.141C214.141 275.958 214.564 274.363 215.41 272.918C216.27 271.473 217.461 270.32 218.984 269.461C220.508 268.589 222.272 268.152 224.277 268.152C226.374 268.152 228.132 268.478 229.551 269.129C230.97 269.78 232.038 270.724 232.754 271.961C233.483 273.185 233.848 274.663 233.848 276.395C233.848 277.384 233.691 278.335 233.379 279.246C233.066 280.158 232.617 281.062 232.031 281.961C231.445 282.846 230.729 283.758 229.883 284.695C229.049 285.633 228.099 286.629 227.031 287.684L223.359 291.922H234.57ZM257.539 297H251.23L251.27 291.727H257.539C258.841 291.727 259.941 291.414 260.84 290.789C261.751 290.164 262.441 289.233 262.91 287.996C263.392 286.746 263.633 285.21 263.633 283.387V282.156C263.633 280.789 263.496 279.591 263.223 278.562C262.962 277.521 262.572 276.655 262.051 275.965C261.53 275.262 260.879 274.734 260.098 274.383C259.329 274.031 258.444 273.855 257.441 273.855H251.113V268.562H257.441C259.368 268.562 261.133 268.895 262.734 269.559C264.349 270.21 265.742 271.147 266.914 272.371C268.099 273.582 269.01 275.021 269.648 276.688C270.299 278.341 270.625 280.177 270.625 282.195V283.387C270.625 285.392 270.299 287.228 269.648 288.895C269.01 290.561 268.105 292 266.934 293.211C265.762 294.422 264.375 295.359 262.773 296.023C261.185 296.674 259.44 297 257.539 297ZM255.156 268.562V297H248.301V268.562H255.156ZM281.484 268.562V297H274.648V268.562H281.484ZM298.711 274.539L291.777 297H284.414L294.863 268.562H299.531L298.711 274.539ZM304.453 297L297.5 274.539L296.602 268.562H301.328L311.836 297H304.453ZM304.18 286.395V291.688H289.59V286.395H304.18ZM328.574 289.441C328.574 288.999 328.509 288.602 328.379 288.25C328.249 287.885 328.008 287.547 327.656 287.234C327.305 286.922 326.797 286.609 326.133 286.297C325.482 285.971 324.622 285.633 323.555 285.281C322.305 284.865 321.1 284.396 319.941 283.875C318.783 283.341 317.747 282.723 316.836 282.02C315.924 281.303 315.202 280.47 314.668 279.52C314.134 278.556 313.867 277.436 313.867 276.16C313.867 274.936 314.141 273.836 314.688 272.859C315.234 271.87 315.996 271.03 316.973 270.34C317.962 269.637 319.121 269.103 320.449 268.738C321.777 268.361 323.229 268.172 324.805 268.172C326.888 268.172 328.724 268.536 330.312 269.266C331.914 269.982 333.164 271.004 334.062 272.332C334.974 273.647 335.43 275.203 335.43 277H328.613C328.613 276.284 328.464 275.652 328.164 275.105C327.878 274.559 327.441 274.129 326.855 273.816C326.27 273.504 325.534 273.348 324.648 273.348C323.789 273.348 323.066 273.478 322.48 273.738C321.895 273.999 321.452 274.35 321.152 274.793C320.853 275.223 320.703 275.698 320.703 276.219C320.703 276.648 320.82 277.039 321.055 277.391C321.302 277.729 321.647 278.048 322.09 278.348C322.546 278.647 323.092 278.934 323.73 279.207C324.382 279.48 325.111 279.747 325.918 280.008C327.428 280.49 328.77 281.03 329.941 281.629C331.126 282.215 332.122 282.885 332.93 283.641C333.75 284.383 334.368 285.229 334.785 286.18C335.215 287.13 335.43 288.204 335.43 289.402C335.43 290.678 335.182 291.811 334.688 292.801C334.193 293.79 333.483 294.63 332.559 295.32C331.634 295.997 330.527 296.512 329.238 296.863C327.949 297.215 326.51 297.391 324.922 297.391C323.464 297.391 322.025 297.208 320.605 296.844C319.199 296.466 317.923 295.893 316.777 295.125C315.632 294.344 314.714 293.348 314.023 292.137C313.346 290.913 313.008 289.461 313.008 287.781H319.883C319.883 288.615 319.993 289.318 320.215 289.891C320.436 290.464 320.762 290.926 321.191 291.277C321.621 291.616 322.148 291.863 322.773 292.02C323.398 292.163 324.115 292.234 324.922 292.234C325.794 292.234 326.497 292.111 327.031 291.863C327.565 291.603 327.956 291.264 328.203 290.848C328.451 290.418 328.574 289.949 328.574 289.441ZM364.355 268.562H371.211V287.137C371.211 289.35 370.749 291.225 369.824 292.762C368.9 294.285 367.604 295.438 365.938 296.219C364.271 297 362.311 297.391 360.059 297.391C357.832 297.391 355.872 297 354.18 296.219C352.5 295.438 351.185 294.285 350.234 292.762C349.297 291.225 348.828 289.35 348.828 287.137V268.562H355.703V287.137C355.703 288.309 355.872 289.266 356.211 290.008C356.549 290.737 357.044 291.271 357.695 291.609C358.346 291.948 359.134 292.117 360.059 292.117C360.996 292.117 361.784 291.948 362.422 291.609C363.06 291.271 363.542 290.737 363.867 290.008C364.193 289.266 364.355 288.309 364.355 287.137V268.562ZM356.914 267.078L360.781 260.945H367.734L362.285 267.078H356.914ZM389.297 268.562V297H382.441V268.562H389.297ZM397.852 268.562V273.855H374.082V268.562H397.852ZM420.332 291.727V297H405.176V291.727H420.332ZM407.617 268.562V297H400.762V268.562H407.617ZM418.379 279.852V284.949H405.176V279.852H418.379ZM420.391 268.562V273.855H405.176V268.562H420.391ZM430.43 268.562V297H423.594V268.562H430.43ZM449.902 289.441C449.902 288.999 449.837 288.602 449.707 288.25C449.577 287.885 449.336 287.547 448.984 287.234C448.633 286.922 448.125 286.609 447.461 286.297C446.81 285.971 445.951 285.633 444.883 285.281C443.633 284.865 442.428 284.396 441.27 283.875C440.111 283.341 439.076 282.723 438.164 282.02C437.253 281.303 436.53 280.47 435.996 279.52C435.462 278.556 435.195 277.436 435.195 276.16C435.195 274.936 435.469 273.836 436.016 272.859C436.562 271.87 437.324 271.03 438.301 270.34C439.29 269.637 440.449 269.103 441.777 268.738C443.105 268.361 444.557 268.172 446.133 268.172C448.216 268.172 450.052 268.536 451.641 269.266C453.242 269.982 454.492 271.004 455.391 272.332C456.302 273.647 456.758 275.203 456.758 277H449.941C449.941 276.284 449.792 275.652 449.492 275.105C449.206 274.559 448.77 274.129 448.184 273.816C447.598 273.504 446.862 273.348 445.977 273.348C445.117 273.348 444.395 273.478 443.809 273.738C443.223 273.999 442.78 274.35 442.48 274.793C442.181 275.223 442.031 275.698 442.031 276.219C442.031 276.648 442.148 277.039 442.383 277.391C442.63 277.729 442.975 278.048 443.418 278.348C443.874 278.647 444.421 278.934 445.059 279.207C445.71 279.48 446.439 279.747 447.246 280.008C448.757 280.49 450.098 281.03 451.27 281.629C452.454 282.215 453.451 282.885 454.258 283.641C455.078 284.383 455.697 285.229 456.113 286.18C456.543 287.13 456.758 288.204 456.758 289.402C456.758 290.678 456.51 291.811 456.016 292.801C455.521 293.79 454.811 294.63 453.887 295.32C452.962 295.997 451.855 296.512 450.566 296.863C449.277 297.215 447.839 297.391 446.25 297.391C444.792 297.391 443.353 297.208 441.934 296.844C440.527 296.466 439.251 295.893 438.105 295.125C436.96 294.344 436.042 293.348 435.352 292.137C434.674 290.913 434.336 289.461 434.336 287.781H441.211C441.211 288.615 441.322 289.318 441.543 289.891C441.764 290.464 442.09 290.926 442.52 291.277C442.949 291.616 443.477 291.863 444.102 292.02C444.727 292.163 445.443 292.234 446.25 292.234C447.122 292.234 447.826 292.111 448.359 291.863C448.893 291.603 449.284 291.264 449.531 290.848C449.779 290.418 449.902 289.949 449.902 289.441Z" fill="#FFB800"/>
<g clip-path="url(#clip0_13_279)">
<path d="M215.719 0C214.235 0 212.813 0.58934 211.764 1.63837C210.715 2.6874 210.125 4.1102 210.125 5.59375C210.125 7.0773 210.715 8.5001 211.764 9.54913C212.813 10.5982 214.235 11.1875 215.719 11.1875H221.313V23.1581C201.717 25.9903 183.921 36.1387 171.506 51.5613C159.09 66.9839 152.976 86.5363 154.394 106.285C155.812 126.033 164.656 144.511 179.147 158.002C193.638 171.493 212.701 178.996 232.5 179C247.513 178.999 262.209 174.684 274.838 166.567C287.467 158.45 297.497 146.874 303.733 133.218C309.969 119.562 312.149 104.402 310.012 89.542C307.876 74.6823 301.513 60.7498 291.682 49.404C291.731 49.3601 291.78 49.3153 291.827 49.2697L295.788 45.3094L299.737 49.2697C300.253 49.804 300.87 50.2302 301.553 50.5233C302.235 50.8165 302.969 50.9708 303.712 50.9772C304.455 50.9837 305.191 50.8422 305.879 50.5609C306.566 50.2796 307.191 49.8643 307.716 49.3391C308.241 48.8139 308.656 48.1893 308.938 47.5019C309.219 46.8144 309.361 46.0778 309.354 45.3351C309.348 44.5924 309.193 43.8584 308.9 43.1759C308.607 42.4934 308.181 41.8762 307.647 41.3602L291.827 25.5299C291.311 24.9956 290.694 24.5695 290.012 24.2763C289.329 23.9831 288.595 23.8288 287.853 23.8224C287.11 23.8159 286.373 23.9575 285.686 24.2387C284.998 24.52 284.374 24.9353 283.849 25.4605C283.323 25.9858 282.908 26.6103 282.627 27.2978C282.345 27.9852 282.204 28.7218 282.21 29.4645C282.217 30.2073 282.371 30.9413 282.664 31.6237C282.958 32.3062 283.384 32.9234 283.918 33.4394L287.878 37.3998L283.918 41.3602C283.873 41.4044 283.828 41.4492 283.784 41.4944C272.458 31.6581 258.537 25.2956 243.688 23.1693V11.1875H249.281C250.765 11.1875 252.188 10.5982 253.237 9.54913C254.286 8.5001 254.875 7.0773 254.875 5.59375C254.875 4.1102 254.286 2.6874 253.237 1.63837C252.188 0.58934 250.765 0 249.281 0L215.719 0ZM238.094 62.65V100.688C238.094 102.171 237.505 103.594 236.456 104.643C235.407 105.692 233.984 106.281 232.5 106.281H193.344C191.86 106.281 190.438 105.692 189.389 104.643C188.339 103.594 187.75 102.171 187.75 100.688C187.75 99.2039 188.339 97.7812 189.389 96.7321C190.438 95.6831 191.86 95.0938 193.344 95.0938H226.906V62.65C226.906 61.1664 227.496 59.7437 228.545 58.6946C229.594 57.6456 231.017 57.0562 232.5 57.0562C233.984 57.0562 235.407 57.6456 236.456 58.6946C237.505 59.7437 238.094 61.1664 238.094 62.65Z" fill="white"/>
</g>
</g>
<defs>
<filter id="filter0_d_13_279" x="0.921875" y="0" width="459.836" height="305.391" filterUnits="userSpaceOnUse" color-interpolation-filters="sRGB">
<feFlood flood-opacity="0" result="BackgroundImageFix"/>
<feColorMatrix in="SourceAlpha" type="matrix" values="0 0 0 0 0 0 0 0 0 0 0 0 0 0 0 0 0 0 127 0" result="hardAlpha"/>
<feOffset dy="4"/>
<feGaussianBlur stdDeviation="2"/>
<feComposite in2="hardAlpha" operator="out"/>
<feColorMatrix type="matrix" values="0 0 0 0 0 0 0 0 0 0 0 0 0 0 0 0 0 0 0.25 0"/>
<feBlend mode="normal" in2="BackgroundImageFix" result="effect1_dropShadow_13_279"/>
<feBlend mode="normal" in="SourceGraphic" in2="effect1_dropShadow_13_279" result="shape"/>
</filter>
<clipPath id="clip0_13_279">
<rect width="179" height="179" fill="white" transform="translate(143)"/>
</clipPath>
</defs>
</svg>
