<svg width="52" height="53" viewBox="0 0 52 53" fill="none" xmlns="http://www.w3.org/2000/svg">
<path d="M44.403 7.70501C42.0083 5.2527 39.1565 3.30849 36.0138 1.98569C32.8711 0.66288 29.5003 -0.0120716 26.0979 0.000163407C11.841 0.000163407 0.221999 11.786 0.20894 26.255C0.20894 30.8891 1.40382 35.3974 3.65972 39.389L0 53L13.7248 49.3496C17.5216 51.4462 21.7753 52.5451 26.0979 52.5462H26.111C40.3712 52.5462 51.9869 40.7603 52 26.2781C52.0033 22.8267 51.3334 19.4087 50.029 16.221C48.7246 13.0334 46.8115 10.1391 44.3998 7.70501H44.403ZM26.0979 48.1008C22.2423 48.1021 18.4576 47.0494 15.1416 45.0533L14.3581 44.5763L6.21597 46.7427L8.39025 38.6834L7.88096 37.852C5.72564 34.3749 4.58574 30.3493 4.59342 26.2417C4.59342 14.2306 14.2471 4.43227 26.111 4.43227C28.9374 4.42713 31.7368 4.98968 34.3479 6.0875C36.959 7.18531 39.33 8.79668 41.3244 10.8287C43.3258 12.8528 44.9124 15.2589 45.9927 17.9082C47.073 20.5576 47.6257 23.3978 47.6188 26.2649C47.6057 38.319 37.952 48.1008 26.0979 48.1008ZM37.8998 31.757C37.2566 31.4291 34.0801 29.8424 33.4827 29.6171C32.8885 29.4018 32.4543 29.2892 32.0299 29.9451C31.5957 30.5976 30.3551 32.0849 29.9829 32.5122C29.6107 32.9528 29.2255 33.0025 28.5791 32.6779C27.936 32.3466 25.8498 31.6576 23.3817 29.4151C21.4555 27.676 20.166 25.5229 19.7808 24.8703C19.4086 24.2145 19.7448 23.8633 20.0681 23.5354C20.3521 23.2439 20.7112 22.7669 21.0344 22.3893C21.3609 22.0117 21.4686 21.7334 21.6808 21.2962C21.893 20.8523 21.7918 20.4747 21.6318 20.1467C21.4686 19.8188 20.1791 16.5825 19.6338 15.2774C19.1115 13.9888 18.5794 14.1677 18.1811 14.1511C17.8089 14.1279 17.3747 14.1279 16.9405 14.1279C16.6126 14.1362 16.2899 14.2132 15.9927 14.3539C15.6955 14.4947 15.4302 14.6964 15.2135 14.9461C14.6193 15.602 12.9576 17.1887 12.9576 20.425C12.9576 23.6613 15.2755 26.7717 15.602 27.2123C15.9219 27.6528 20.1529 34.2745 26.6464 37.1232C28.1808 37.8023 29.3887 38.2031 30.3322 38.5079C31.883 39.0114 33.2835 38.9352 34.4 38.7729C35.6406 38.5807 38.223 37.1829 38.7682 35.6492C39.3036 34.1122 39.3036 32.8004 39.1404 32.5255C38.9804 32.2473 38.5462 32.0849 37.8998 31.757Z" fill="white"/>
</svg>
