<svg width="90" height="16" viewBox="0 0 90 16" fill="none" xmlns="http://www.w3.org/2000/svg">
<path d="M3.61065 14.9442C3.22465 15.1422 2.78665 14.7952 2.86465 14.3522L3.69465 9.62223L0.171653 6.26623C-0.157347 5.95223 0.0136534 5.37823 0.454653 5.31623L5.35265 4.62023L7.53665 0.293232C7.73365 -0.0967676 8.26665 -0.0967676 8.46365 0.293232L10.6477 4.62023L15.5457 5.31623C15.9867 5.37823 16.1577 5.95223 15.8277 6.26623L12.3057 9.62223L13.1357 14.3522C13.2137 14.7952 12.7757 15.1422 12.3897 14.9442L7.99865 12.6882L3.60965 14.9442H3.61065Z" fill="#FFB800"/>
<path d="M22.6107 14.9435C22.2247 15.1415 21.7867 14.7945 21.8647 14.3515L22.6947 9.6215L19.1717 6.2655C18.8427 5.9515 19.0137 5.3775 19.4547 5.3155L24.3527 4.6195L26.5367 0.2925C26.7337 -0.0975 27.2667 -0.0975 27.4637 0.2925L29.6477 4.6195L34.5457 5.3155C34.9867 5.3775 35.1577 5.9515 34.8277 6.2655L31.3057 9.6215L32.1357 14.3515C32.2137 14.7945 31.7757 15.1415 31.3897 14.9435L26.9987 12.6875L22.6097 14.9435H22.6107Z" fill="#FFB800"/>
<path d="M41.6107 14.9435C41.2247 15.1415 40.7867 14.7945 40.8647 14.3515L41.6947 9.6215L38.1717 6.2655C37.8427 5.9515 38.0137 5.3775 38.4547 5.3155L43.3527 4.6195L45.5367 0.2925C45.7337 -0.0975 46.2667 -0.0975 46.4637 0.2925L48.6477 4.6195L53.5457 5.3155C53.9867 5.3775 54.1577 5.9515 53.8277 6.2655L50.3057 9.6215L51.1357 14.3515C51.2137 14.7945 50.7757 15.1415 50.3897 14.9435L45.9987 12.6875L41.6097 14.9435H41.6107Z" fill="#FFB800"/>
<path d="M76.8647 14.3511C76.7867 14.7951 77.2247 15.1421 77.6107 14.9441L82.0007 12.6881L86.3897 14.9441C86.7757 15.1421 87.2137 14.7951 87.1357 14.3521L86.3057 9.62214L89.8277 6.26614C90.1577 5.95214 89.9877 5.37814 89.5457 5.31614L84.6477 4.62014L82.4637 0.293144C82.422 0.205433 82.3564 0.131327 82.2744 0.0794362C82.1923 0.0275455 82.0972 0 82.0002 0C81.9031 0 81.808 0.0275455 81.7259 0.0794362C81.6439 0.131327 81.5783 0.205433 81.5367 0.293144L79.3527 4.62114L74.4547 5.31714C74.0137 5.37914 73.8427 5.95314 74.1717 6.26714L77.6947 9.62314L76.8647 14.3531V14.3511ZM81.7697 11.5841L78.0837 13.4781L78.7777 9.52114C78.7939 9.43006 78.7876 9.33637 78.7591 9.24832C78.7307 9.16026 78.6811 9.08054 78.6147 9.01614L75.7087 6.24614L79.7607 5.67014C79.8446 5.65747 79.9241 5.62465 79.9926 5.5745C80.061 5.52434 80.1163 5.45834 80.1537 5.38214L81.9987 1.72414L83.8457 5.38214C83.883 5.45834 83.9383 5.52434 84.0067 5.5745C84.0752 5.62465 84.1547 5.65747 84.2387 5.67014L88.2907 6.24514L85.3847 9.01514C85.3181 9.07964 85.2684 9.15953 85.2399 9.24778C85.2115 9.33602 85.2052 9.4299 85.2217 9.52114L85.9157 13.4781L82.2297 11.5841C82.1584 11.5474 82.0793 11.5282 81.9992 11.5282C81.919 11.5282 81.8399 11.5474 81.7687 11.5841H81.7697Z" fill="#FFB800"/>
<path d="M62.353 4.619L64.537 0.292C64.579 0.204954 64.6445 0.131433 64.7262 0.0798096C64.8079 0.0281859 64.9024 0.000533281 64.999 0C65.182 0 65.365 0.097 65.464 0.292L67.648 4.619L72.546 5.315C72.6681 5.33419 72.7798 5.39491 72.8624 5.48691C72.9449 5.57891 72.9931 5.69655 72.999 5.82C73.006 5.90219 72.9943 5.98489 72.9649 6.06194C72.9355 6.13899 72.889 6.2084 72.829 6.265L69.306 9.621L70.136 14.351C70.214 14.794 69.776 15.141 69.39 14.943L64.999 12.687L60.61 14.943C60.5641 14.9668 60.5149 14.9837 60.464 14.993C60.122 15.053 59.796 14.739 59.864 14.351L60.694 9.621L57.172 6.265C57.1173 6.2132 57.0737 6.15069 57.0441 6.08137C57.0146 6.01204 56.9995 5.93737 57 5.862C57.0001 5.75544 57.0295 5.65095 57.085 5.56C57.1244 5.49407 57.1781 5.43783 57.2421 5.39542C57.3062 5.35302 57.3789 5.32553 57.455 5.315L62.353 4.619ZM64.999 11.527C65.0797 11.5267 65.1593 11.5459 65.231 11.583L68.917 13.477L68.223 9.52C68.2066 9.429 68.2128 9.33536 68.2411 9.24731C68.2693 9.15926 68.3187 9.07949 68.385 9.015L71.292 6.245L67.24 5.669C67.1561 5.65633 67.0765 5.62351 67.0081 5.57335C66.9396 5.52319 66.8844 5.45719 66.847 5.381L65 1.723L64.999 1.726V11.526V11.527Z" fill="#FFB800"/>
</svg>
