<svg width="45" height="51" viewBox="0 0 45 51" fill="none" xmlns="http://www.w3.org/2000/svg">
<path fill-rule="evenodd" clip-rule="evenodd" d="M30.4688 11.1562C30.4688 9.04281 29.6292 7.01592 28.1348 5.52149C26.6403 4.02706 24.6134 3.1875 22.5 3.1875C20.3866 3.1875 18.3597 4.02706 16.8652 5.52149C15.3708 7.01592 14.5312 9.04281 14.5312 11.1562V12.75H30.4688V11.1562ZM33.6562 11.1562V12.75H44.8125V44.625C44.8125 46.3158 44.1409 47.9373 42.9453 49.1328C41.7498 50.3284 40.1283 51 38.4375 51H6.5625C4.87174 51 3.25024 50.3284 2.05469 49.1328C0.85915 47.9373 0.1875 46.3158 0.1875 44.625V12.75H11.3438V11.1562C11.3438 8.19743 12.5191 5.35979 14.6113 3.26759C16.7035 1.17539 19.5412 0 22.5 0C25.4588 0 28.2965 1.17539 30.3887 3.26759C32.4809 5.35979 33.6562 8.19743 33.6562 11.1562ZM41.625 44.625V15.9375H3.375V44.625C3.375 45.4704 3.71082 46.2811 4.3086 46.8789C4.90637 47.4767 5.71712 47.8125 6.5625 47.8125H38.4375C39.2829 47.8125 40.0936 47.4767 40.6914 46.8789C41.2892 46.2811 41.625 45.4704 41.625 44.625ZM22.5 25.4777C27.804 20.0239 41.0672 29.5672 22.5 41.8359C3.93281 29.5641 17.196 20.0239 22.5 25.4777Z" fill="#FFB800"/>
</svg>
