<svg width="58" height="56" viewBox="0 0 58 56" fill="none" xmlns="http://www.w3.org/2000/svg">
<g clip-path="url(#clip0_251_3268)">
<path fill-rule="evenodd" clip-rule="evenodd" d="M19.3586 -0.924119C19.3333 2.69742 19.308 6.31931 19.2827 9.94155C19.0044 9.66302 18.726 9.38441 18.4476 9.10572L13.3613 4.31924C13.4119 2.54621 13.4625 0.773131 13.5131 -1L19.3586 -0.924119ZM57.7723 -0.0882168C58.1691 0.350526 57.9241 2.12189 57.9241 2.87515V11.1574C57.8988 22.022 57.8735 32.8877 57.8482 43.7544L45.7775 55H45.7016V47.4776L52.3822 41.3229C52.4581 31.7499 52.534 22.176 52.6099 12.6011L29.3037 33.6486L28.7723 33.1167L19.3586 24.9864C19.3333 28.0255 19.308 31.0648 19.2827 34.1045L29.5314 45.1224L39.856 34.7883L46.233 28.5577C46.1571 31.3941 46.0812 34.2308 46.0052 37.0679L29.4555 52.7965L13.2853 36.7639C13.3106 31.0657 13.336 25.367 13.3613 19.6679L5.46597 12.6011H5.39005L5.6178 41.4749L12.2984 47.4776C12.2731 49.8835 12.2478 52.2897 12.2225 54.6961L11.5393 54.0122L0 43.6027L0.303665 -0.0121843L0.986911 0.671653L29.2277 26.1262L29.6832 25.6703L57.7723 -0.0882168Z" fill="#FFB800"/>
</g>
<defs>
<clipPath id="clip0_251_3268">
<rect width="58" height="56" fill="white"/>
</clipPath>
</defs>
</svg>
