<svg width="293" height="56" viewBox="0 0 293 56" fill="none" xmlns="http://www.w3.org/2000/svg">
<g clip-path="url(#clip0_181_1243)">
<path fill-rule="evenodd" clip-rule="evenodd" d="M19.3586 -0.924119C19.3333 2.69742 19.308 6.31931 19.2827 9.94155C19.0044 9.66302 18.726 9.38441 18.4476 9.10572L13.3613 4.31924C13.4119 2.54621 13.4625 0.773131 13.5131 -1L19.3586 -0.924119ZM57.7723 -0.0882168C58.1691 0.350526 57.9241 2.12189 57.9241 2.87515V11.1574C57.8988 22.022 57.8735 32.8877 57.8482 43.7544L45.7775 55H45.7016V47.4776L52.3822 41.3229C52.4581 31.7499 52.534 22.176 52.6099 12.6011L29.3037 33.6486L28.7723 33.1167L19.3586 24.9864C19.3333 28.0255 19.308 31.0648 19.2827 34.1045L29.5314 45.1224L39.856 34.7883L46.233 28.5577C46.1571 31.3941 46.0812 34.2308 46.0052 37.0679L29.4555 52.7965L13.2853 36.7639C13.3106 31.0657 13.336 25.367 13.3613 19.6679L5.46597 12.6011H5.39005L5.6178 41.4749L12.2984 47.4776C12.2731 49.8835 12.2478 52.2897 12.2225 54.6961L11.5393 54.0122L0 43.6027L0.303665 -0.0121843L0.986911 0.671653L29.2277 26.1262L29.6832 25.6703L57.7723 -0.0882168Z" fill="#FFB800"/>
</g>
<path d="M67.584 39V15.9H72.105V35.172H78.969V39H67.584ZM86.8918 39H83.4268C82.4588 37.768 81.7988 36.536 81.4468 35.304C81.0948 34.072 80.9188 32.532 80.9188 30.684V22.137H85.3078V31.014C85.3078 33.016 85.7038 34.523 86.4958 35.535H89.5648V22.137H93.9538V39H90.4888L89.8948 37.812C89.0588 38.604 88.0578 39 86.8918 39ZM96.7774 39V15.9H101.166V28.143H101.628L104.73 22.137H109.02L105.126 29.496L109.053 39H104.697L101.661 31.608H101.166V39H96.7774ZM118.459 31.377H114.928C114.466 31.949 114.235 32.664 114.235 33.522C114.235 34.38 114.477 35.051 114.961 35.535H118.459V31.377ZM111.364 22.137H119.548C120.868 22.929 121.737 23.842 122.155 24.876C122.573 25.888 122.782 27.274 122.782 29.034V33.984C122.782 35.81 122.826 37.482 122.914 39H119.152L118.558 37.812C117.7 38.604 116.49 39 114.928 39H112.849C110.979 37.768 110.044 35.997 110.044 33.687C110.044 31.355 111.001 29.518 112.915 28.176H116.017C116.875 28.176 117.678 28.44 118.426 28.968V27.318C118.426 26.46 118.052 25.888 117.304 25.602H111.364V22.137ZM135.652 39H128.458C126.258 36.954 125.158 34.16 125.158 30.618C125.158 28.836 125.4 27.285 125.884 25.965C126.39 24.645 127.182 23.369 128.26 22.137H135.982C137.126 23.457 137.907 24.744 138.325 25.998C138.743 27.23 138.952 28.77 138.952 30.618C138.952 34.16 137.852 36.954 135.652 39ZM130.801 35.535H133.309C134.101 33.995 134.497 32.246 134.497 30.288C134.497 28.33 134.09 26.768 133.276 25.602H130.801C130.009 26.724 129.613 28.319 129.613 30.387C129.613 32.433 130.009 34.149 130.801 35.535ZM155.18 28.44H155.048H155.18L156.929 21.213L158.348 15.9H162.473L163.958 39H159.635L159.008 26.394H158.843L156.467 35.7H153.761L151.385 26.394H151.22L150.593 39H146.27L147.755 15.9H151.88L153.299 21.213L155.048 28.44H155.18ZM172.292 39H168.827C167.859 37.768 167.199 36.536 166.847 35.304C166.495 34.072 166.319 32.532 166.319 30.684V22.137H170.708V31.014C170.708 33.016 171.104 34.523 171.896 35.535H174.965V22.137H179.354V39H175.889L175.295 37.812C174.459 38.604 173.458 39 172.292 39ZM186.534 15.9V39H182.178V15.9H186.534ZM190.354 31.641V25.602H188.077V22.137H190.354V17.55H194.743V22.137H197.449V25.602H194.743V32.697C194.743 34.039 194.974 34.985 195.436 35.535H197.449V39H192.763C191.597 37.922 190.893 36.756 190.651 35.502C190.453 34.446 190.354 33.159 190.354 31.641ZM199.645 39V22.137H204.001V39H199.645ZM199.645 15.9H204.001V20.355H199.645V15.9ZM214.157 22.137H216.5L217.325 23.292C217.787 22.874 218.227 22.577 218.645 22.401C219.085 22.225 219.734 22.137 220.592 22.137H224.255C225.223 23.369 225.883 24.601 226.235 25.833C226.587 27.065 226.763 28.605 226.763 30.453V39H222.374V30.123C222.374 28.099 222.066 26.592 221.45 25.602H218.282C218.766 26.548 219.008 27.835 219.008 29.463V39H214.619V30.123C214.619 28.033 214.333 26.526 213.761 25.602H211.22V39H206.831V22.137H210.263L210.857 23.325C211.341 22.885 211.792 22.577 212.21 22.401C212.65 22.225 213.299 22.137 214.157 22.137ZM237.407 31.377H233.876C233.414 31.949 233.183 32.664 233.183 33.522C233.183 34.38 233.425 35.051 233.909 35.535H237.407V31.377ZM230.312 22.137H238.496C239.816 22.929 240.685 23.842 241.103 24.876C241.521 25.888 241.73 27.274 241.73 29.034V33.984C241.73 35.81 241.774 37.482 241.862 39H238.1L237.506 37.812C236.648 38.604 235.438 39 233.876 39H231.797C229.927 37.768 228.992 35.997 228.992 33.687C228.992 31.355 229.949 29.518 231.863 28.176H234.965C235.823 28.176 236.626 28.44 237.374 28.968V27.318C237.374 26.46 237 25.888 236.252 25.602H230.312V22.137ZM244.601 39V22.137H247.736L248.561 23.919C249.441 22.731 250.552 22.137 251.894 22.137H253.181V26.559H248.99V39H244.601ZM258.554 30.42C258.554 31.344 258.697 32.29 258.983 33.258C259.269 34.204 259.665 34.963 260.171 35.535H265.121V39H257.894C255.298 36.932 254 34.072 254 30.42C254 26.768 255.386 24.007 258.158 22.137H265.121V25.602H260.171C259.093 26.724 258.554 28.33 258.554 30.42ZM275.112 31.377H271.581C271.119 31.949 270.888 32.664 270.888 33.522C270.888 34.38 271.13 35.051 271.614 35.535H275.112V31.377ZM268.017 22.137H276.201C277.521 22.929 278.39 23.842 278.808 24.876C279.226 25.888 279.435 27.274 279.435 29.034V33.984C279.435 35.81 279.479 37.482 279.567 39H275.805L275.211 37.812C274.353 38.604 273.143 39 271.581 39H269.502C267.632 37.768 266.697 35.997 266.697 33.687C266.697 31.355 267.654 29.518 269.568 28.176H272.67C273.528 28.176 274.331 28.44 275.079 28.968V27.318C275.079 26.46 274.705 25.888 273.957 25.602H268.017V22.137ZM283.923 22.137H291.216V25.602H286.068L289.203 30.255C290.611 32.257 291.392 33.632 291.546 34.38C291.634 34.732 291.678 35.095 291.678 35.469C291.678 37.031 291.095 38.208 289.929 39H281.514V35.535H287.553L284.022 30.354C283.868 30.112 283.626 29.771 283.296 29.331C282.988 28.891 282.746 28.539 282.57 28.275C282.394 27.989 282.273 27.78 282.207 27.648C282.141 27.516 282.053 27.351 281.943 27.153C281.833 26.933 281.756 26.746 281.712 26.592C281.624 26.174 281.58 25.833 281.58 25.569C281.58 23.963 282.361 22.819 283.923 22.137Z" fill="white"/>
<defs>
<clipPath id="clip0_181_1243">
<rect width="58" height="56" fill="white"/>
</clipPath>
</defs>
</svg>
